G04 #@! TF.FileFunction,Soldermask,Bot*
%FSLAX46Y46*%
G04 Gerber Fmt 4.6, Leading zero omitted, Abs format (unit mm)*
G04 Created by KiCad (PCBNEW 4.0.2-1.fc23-product) date Fri 02 Dec 2016 11:09:15 GMT*
%MOMM*%
G01*
G04 APERTURE LIST*
%ADD10C,0.100000*%
%ADD11C,1.400000*%
%ADD12C,4.000000*%
%ADD13R,1.727200X1.727200*%
%ADD14O,1.727200X1.727200*%
%ADD15C,6.200000*%
%ADD16C,1.500000*%
%ADD17R,2.032000X2.032000*%
%ADD18O,2.032000X2.032000*%
G04 APERTURE END LIST*
D10*
D11*
X134366000Y-79756000D03*
X136366000Y-79756000D03*
X134366000Y-81756000D03*
X136366000Y-81756000D03*
X134366000Y-83756000D03*
X136366000Y-83756000D03*
X134366000Y-85756000D03*
X136366000Y-85756000D03*
X134366000Y-87756000D03*
X136366000Y-87756000D03*
X134366000Y-89756000D03*
X136366000Y-89756000D03*
D12*
X148346000Y-99106000D03*
D13*
X103620000Y-52260000D03*
D14*
X103620000Y-49720000D03*
X106160000Y-52260000D03*
X106160000Y-49720000D03*
X108700000Y-52260000D03*
X108700000Y-49720000D03*
X111240000Y-52260000D03*
X111240000Y-49720000D03*
X113780000Y-52260000D03*
X113780000Y-49720000D03*
X116320000Y-52260000D03*
X116320000Y-49720000D03*
X118860000Y-52260000D03*
X118860000Y-49720000D03*
X121400000Y-52260000D03*
X121400000Y-49720000D03*
X123940000Y-52260000D03*
X123940000Y-49720000D03*
X126480000Y-52260000D03*
X126480000Y-49720000D03*
X129020000Y-52260000D03*
X129020000Y-49720000D03*
X131560000Y-52260000D03*
X131560000Y-49720000D03*
X134100000Y-52260000D03*
X134100000Y-49720000D03*
X136640000Y-52260000D03*
X136640000Y-49720000D03*
X139180000Y-52260000D03*
X139180000Y-49720000D03*
X141720000Y-52260000D03*
X141720000Y-49720000D03*
X144260000Y-52260000D03*
X144260000Y-49720000D03*
X146800000Y-52260000D03*
X146800000Y-49720000D03*
X149340000Y-52260000D03*
X149340000Y-49720000D03*
X151880000Y-52260000D03*
X151880000Y-49720000D03*
D15*
X156750000Y-50990000D03*
X156750000Y-99990000D03*
X98750000Y-99990000D03*
X98750000Y-50990000D03*
D11*
X111252000Y-79756000D03*
X113252000Y-79756000D03*
X111252000Y-81756000D03*
X113252000Y-81756000D03*
X111252000Y-83756000D03*
X113252000Y-83756000D03*
X111252000Y-85756000D03*
X113252000Y-85756000D03*
X111252000Y-87756000D03*
X113252000Y-87756000D03*
X111252000Y-89756000D03*
X113252000Y-89756000D03*
D12*
X125232000Y-99106000D03*
D16*
X145440000Y-67564000D03*
X126340000Y-68834000D03*
X126340000Y-66294000D03*
D17*
X107442000Y-58928000D03*
D18*
X107442000Y-61468000D03*
M02*
