G04 #@! TF.FileFunction,Copper,L2,Bot,Signal*
%FSLAX46Y46*%
G04 Gerber Fmt 4.6, Leading zero omitted, Abs format (unit mm)*
G04 Created by KiCad (PCBNEW 4.0.2-1.fc23-product) date Fri 02 Dec 2016 11:09:15 GMT*
%MOMM*%
G01*
G04 APERTURE LIST*
%ADD10C,0.100000*%
%ADD11C,1.400000*%
%ADD12R,1.727200X1.727200*%
%ADD13O,1.727200X1.727200*%
%ADD14C,1.500000*%
%ADD15R,2.032000X2.032000*%
%ADD16O,2.032000X2.032000*%
%ADD17C,0.600000*%
%ADD18C,0.250000*%
%ADD19C,1.000000*%
%ADD20C,0.500000*%
%ADD21C,0.200000*%
%ADD22C,0.254000*%
G04 APERTURE END LIST*
D10*
D11*
X134366000Y-79756000D03*
X136366000Y-79756000D03*
X134366000Y-81756000D03*
X136366000Y-81756000D03*
X134366000Y-83756000D03*
X136366000Y-83756000D03*
X134366000Y-85756000D03*
X136366000Y-85756000D03*
X134366000Y-87756000D03*
X136366000Y-87756000D03*
X134366000Y-89756000D03*
X136366000Y-89756000D03*
D12*
X103620000Y-52260000D03*
D13*
X103620000Y-49720000D03*
X106160000Y-52260000D03*
X106160000Y-49720000D03*
X108700000Y-52260000D03*
X108700000Y-49720000D03*
X111240000Y-52260000D03*
X111240000Y-49720000D03*
X113780000Y-52260000D03*
X113780000Y-49720000D03*
X116320000Y-52260000D03*
X116320000Y-49720000D03*
X118860000Y-52260000D03*
X118860000Y-49720000D03*
X121400000Y-52260000D03*
X121400000Y-49720000D03*
X123940000Y-52260000D03*
X123940000Y-49720000D03*
X126480000Y-52260000D03*
X126480000Y-49720000D03*
X129020000Y-52260000D03*
X129020000Y-49720000D03*
X131560000Y-52260000D03*
X131560000Y-49720000D03*
X134100000Y-52260000D03*
X134100000Y-49720000D03*
X136640000Y-52260000D03*
X136640000Y-49720000D03*
X139180000Y-52260000D03*
X139180000Y-49720000D03*
X141720000Y-52260000D03*
X141720000Y-49720000D03*
X144260000Y-52260000D03*
X144260000Y-49720000D03*
X146800000Y-52260000D03*
X146800000Y-49720000D03*
X149340000Y-52260000D03*
X149340000Y-49720000D03*
X151880000Y-52260000D03*
X151880000Y-49720000D03*
D11*
X111252000Y-79756000D03*
X113252000Y-79756000D03*
X111252000Y-81756000D03*
X113252000Y-81756000D03*
X111252000Y-83756000D03*
X113252000Y-83756000D03*
X111252000Y-85756000D03*
X113252000Y-85756000D03*
X111252000Y-87756000D03*
X113252000Y-87756000D03*
X111252000Y-89756000D03*
X113252000Y-89756000D03*
D14*
X145440000Y-67564000D03*
X126340000Y-68834000D03*
X126340000Y-66294000D03*
D15*
X107442000Y-58928000D03*
D16*
X107442000Y-61468000D03*
D17*
X107696000Y-73660000D03*
X109982000Y-68072000D03*
X105894000Y-67818000D03*
X105894000Y-70128000D03*
X105156000Y-80010000D03*
X101854000Y-93218000D03*
X117602000Y-69342000D03*
X117348000Y-62738000D03*
X131572000Y-85598000D03*
X126746000Y-87122000D03*
X126492000Y-90932000D03*
X117094000Y-93472000D03*
X116840000Y-89662000D03*
X117094000Y-85344000D03*
X137922000Y-86868000D03*
X116078000Y-84836000D03*
X115824000Y-73406000D03*
X116840000Y-73406000D03*
X117348000Y-84328000D03*
X117856000Y-73406000D03*
X118110000Y-83312000D03*
X118872000Y-82042000D03*
X118872000Y-73406000D03*
X129794000Y-89662000D03*
X129286000Y-90932000D03*
X112268000Y-77724000D03*
X114554000Y-75438000D03*
X132334000Y-79248000D03*
X128778000Y-74930000D03*
X127508000Y-75184000D03*
X131064000Y-79248000D03*
X115570000Y-77724000D03*
X136652000Y-73152000D03*
X132334000Y-73152000D03*
X124968000Y-74422000D03*
X129794000Y-79248000D03*
X114808000Y-78740000D03*
X119634000Y-63754000D03*
D18*
X105894000Y-67818000D02*
X105918000Y-67818000D01*
D19*
X105894000Y-70128000D02*
X105918000Y-70104000D01*
D20*
X131548000Y-85622000D02*
X131596000Y-85622000D01*
X131572000Y-85598000D02*
X131548000Y-85622000D01*
D19*
X136906000Y-79756000D02*
X138176000Y-81026000D01*
X138176000Y-81026000D02*
X138176000Y-86614000D01*
X138176000Y-86614000D02*
X137922000Y-86868000D01*
X136366000Y-79756000D02*
X136906000Y-79756000D01*
D18*
X116332000Y-84582000D02*
X116332000Y-74422000D01*
X116078000Y-84836000D02*
X116332000Y-84582000D01*
X115824000Y-73406000D02*
X115824000Y-73914000D01*
X116332000Y-74422000D02*
X115824000Y-73914000D01*
X117094000Y-84074000D02*
X117094000Y-73660000D01*
X116840000Y-73406000D02*
X117094000Y-73660000D01*
X117348000Y-84328000D02*
X117094000Y-84074000D01*
X118110000Y-83312000D02*
X117856000Y-83058000D01*
X117856000Y-83058000D02*
X117856000Y-73406000D01*
X118872000Y-82042000D02*
X118618000Y-81788000D01*
X118618000Y-81788000D02*
X118618000Y-73660000D01*
X118618000Y-73660000D02*
X118872000Y-73406000D01*
D21*
X113252000Y-89756000D02*
X113252000Y-89948000D01*
D18*
X129888000Y-89756000D02*
X129794000Y-89662000D01*
X134366000Y-89756000D02*
X129888000Y-89756000D01*
X135382000Y-90932000D02*
X129286000Y-90932000D01*
X136366000Y-89948000D02*
X135382000Y-90932000D01*
X136366000Y-89756000D02*
X136366000Y-89948000D01*
X112268000Y-77724000D02*
X114554000Y-75438000D01*
X132334000Y-79248000D02*
X129794000Y-76708000D01*
X128778000Y-75692000D02*
X129794000Y-76708000D01*
X128778000Y-75438000D02*
X128778000Y-75692000D01*
X128778000Y-74930000D02*
X128778000Y-75438000D01*
X129032000Y-77216000D02*
X127762000Y-75946000D01*
X127762000Y-75946000D02*
X127508000Y-75692000D01*
X127508000Y-75692000D02*
X127508000Y-75184000D01*
X131064000Y-79248000D02*
X129032000Y-77216000D01*
X115570000Y-83566000D02*
X115570000Y-80010000D01*
X115570000Y-80010000D02*
X115570000Y-77724000D01*
X115570000Y-83566000D02*
X113380000Y-85756000D01*
X132334000Y-73152000D02*
X136652000Y-73152000D01*
X113252000Y-85756000D02*
X113380000Y-85756000D01*
X129794000Y-79248000D02*
X128270000Y-77724000D01*
X128270000Y-77724000D02*
X124968000Y-74422000D01*
X114808000Y-78740000D02*
X114808000Y-82296000D01*
X114808000Y-82296000D02*
X114808000Y-83058000D01*
X114808000Y-83058000D02*
X114110000Y-83756000D01*
X114110000Y-83756000D02*
X113252000Y-83756000D01*
X126340000Y-66294000D02*
X126340000Y-68834000D01*
X126340000Y-64618000D02*
X126340000Y-66294000D01*
X125476000Y-63754000D02*
X126340000Y-64618000D01*
X119634000Y-63754000D02*
X125476000Y-63754000D01*
D22*
G36*
X158130777Y-47863617D02*
X158877463Y-48362537D01*
X159263403Y-48940137D01*
X158580336Y-48255877D01*
X157394706Y-47763561D01*
X156110926Y-47762441D01*
X154924439Y-48252687D01*
X154015877Y-49159664D01*
X153523561Y-50345294D01*
X153522441Y-51629074D01*
X154012687Y-52815561D01*
X154919664Y-53724123D01*
X156105294Y-54216439D01*
X157389074Y-54217559D01*
X158575561Y-53727313D01*
X159484123Y-52820336D01*
X159565000Y-52625562D01*
X159565000Y-95631000D01*
X141935000Y-95631000D01*
X141935000Y-84490000D01*
X141921838Y-84423830D01*
X141921838Y-84356364D01*
X141845718Y-83973681D01*
X141755552Y-83756000D01*
X141743437Y-83726751D01*
X141526664Y-83402328D01*
X141337672Y-83213336D01*
X141013248Y-82996563D01*
X140997403Y-82990000D01*
X140766319Y-82894282D01*
X140383636Y-82818162D01*
X140250000Y-82818162D01*
X139733681Y-82894282D01*
X139589032Y-82954197D01*
X139486751Y-82996563D01*
X139311000Y-83113996D01*
X139311000Y-81026000D01*
X139224603Y-80591654D01*
X138978566Y-80223434D01*
X137708566Y-78953434D01*
X137509953Y-78820725D01*
X137340346Y-78707397D01*
X137172159Y-78673942D01*
X137123204Y-78624902D01*
X136632713Y-78421232D01*
X136101617Y-78420769D01*
X135610771Y-78623582D01*
X135234902Y-78998796D01*
X135186681Y-79114925D01*
X134545605Y-79756000D01*
X135186227Y-80396621D01*
X135233582Y-80511229D01*
X135478024Y-80756098D01*
X135365902Y-80868024D01*
X135123204Y-80624902D01*
X135007075Y-80576681D01*
X134366000Y-79935605D01*
X133725379Y-80576227D01*
X133610771Y-80623582D01*
X133234902Y-80998796D01*
X133031232Y-81489287D01*
X133030769Y-82020383D01*
X133233582Y-82511229D01*
X133478024Y-82756098D01*
X133234902Y-82998796D01*
X133031232Y-83489287D01*
X133030769Y-84020383D01*
X133233582Y-84511229D01*
X133478024Y-84756098D01*
X133234902Y-84998796D01*
X133031232Y-85489287D01*
X133030769Y-86020383D01*
X133233582Y-86511229D01*
X133608796Y-86887098D01*
X133724925Y-86935319D01*
X134366000Y-87576395D01*
X135006621Y-86935773D01*
X135121229Y-86888418D01*
X135366098Y-86643976D01*
X135478024Y-86756098D01*
X135234902Y-86998796D01*
X135186681Y-87114925D01*
X134545605Y-87756000D01*
X135186227Y-88396621D01*
X135233582Y-88511229D01*
X135478024Y-88756098D01*
X135365902Y-88868024D01*
X135123204Y-88624902D01*
X135007075Y-88576681D01*
X134366000Y-87935605D01*
X133725379Y-88576227D01*
X133610771Y-88623582D01*
X133237703Y-88996000D01*
X130450299Y-88996000D01*
X130324327Y-88869808D01*
X129980799Y-88727162D01*
X129608833Y-88726838D01*
X129265057Y-88868883D01*
X129001808Y-89131673D01*
X128859162Y-89475201D01*
X128858838Y-89847167D01*
X128946952Y-90060420D01*
X128757057Y-90138883D01*
X128493808Y-90401673D01*
X128351162Y-90745201D01*
X128350838Y-91117167D01*
X128492883Y-91460943D01*
X128755673Y-91724192D01*
X129099201Y-91866838D01*
X129471167Y-91867162D01*
X129814943Y-91725117D01*
X129848118Y-91692000D01*
X135382000Y-91692000D01*
X135672839Y-91634148D01*
X135919401Y-91469401D01*
X136297861Y-91090941D01*
X136630383Y-91091231D01*
X137121229Y-90888418D01*
X137497098Y-90513204D01*
X137700768Y-90022713D01*
X137701231Y-89491617D01*
X137498418Y-89000771D01*
X137253976Y-88755902D01*
X137497098Y-88513204D01*
X137700768Y-88022713D01*
X137700824Y-87959005D01*
X137922000Y-88003000D01*
X138356345Y-87916603D01*
X138565000Y-87777184D01*
X138565000Y-95631000D01*
X95935000Y-95631000D01*
X95935000Y-87563122D01*
X109904581Y-87563122D01*
X109933336Y-88093440D01*
X110080958Y-88449831D01*
X110316725Y-88511669D01*
X111072395Y-87756000D01*
X110316725Y-87000331D01*
X110080958Y-87062169D01*
X109904581Y-87563122D01*
X95935000Y-87563122D01*
X95935000Y-85057466D01*
X95971376Y-84874591D01*
X96036751Y-84776750D01*
X96134590Y-84711376D01*
X96317466Y-84675000D01*
X99250000Y-84675000D01*
X99316170Y-84661838D01*
X99383636Y-84661838D01*
X99766319Y-84585718D01*
X100013248Y-84483437D01*
X100013249Y-84483436D01*
X100337672Y-84266664D01*
X100526664Y-84077672D01*
X100743437Y-83753249D01*
X100797123Y-83623637D01*
X100845718Y-83506319D01*
X100921838Y-83123636D01*
X100921838Y-83056170D01*
X100935000Y-82990000D01*
X100935000Y-82020383D01*
X109916769Y-82020383D01*
X110119582Y-82511229D01*
X110364024Y-82756098D01*
X110120902Y-82998796D01*
X109917232Y-83489287D01*
X109916769Y-84020383D01*
X110119582Y-84511229D01*
X110364024Y-84756098D01*
X110120902Y-84998796D01*
X109917232Y-85489287D01*
X109916769Y-86020383D01*
X110119582Y-86511229D01*
X110494796Y-86887098D01*
X110610925Y-86935319D01*
X111252000Y-87576395D01*
X111892621Y-86935773D01*
X112007229Y-86888418D01*
X112252098Y-86643976D01*
X112364024Y-86756098D01*
X112120902Y-86998796D01*
X112072681Y-87114925D01*
X111431605Y-87756000D01*
X112072227Y-88396621D01*
X112119582Y-88511229D01*
X112364024Y-88756098D01*
X112251902Y-88868024D01*
X112009204Y-88624902D01*
X111893075Y-88576681D01*
X111252000Y-87935605D01*
X110611379Y-88576227D01*
X110496771Y-88623582D01*
X110120902Y-88998796D01*
X109917232Y-89489287D01*
X109916769Y-90020383D01*
X110119582Y-90511229D01*
X110494796Y-90887098D01*
X110985287Y-91090768D01*
X111516383Y-91091231D01*
X112007229Y-90888418D01*
X112252098Y-90643976D01*
X112494796Y-90887098D01*
X112985287Y-91090768D01*
X113516383Y-91091231D01*
X114007229Y-90888418D01*
X114383098Y-90513204D01*
X114586768Y-90022713D01*
X114587231Y-89491617D01*
X114384418Y-89000771D01*
X114139976Y-88755902D01*
X114383098Y-88513204D01*
X114586768Y-88022713D01*
X114587168Y-87563122D01*
X133018581Y-87563122D01*
X133047336Y-88093440D01*
X133194958Y-88449831D01*
X133430725Y-88511669D01*
X134186395Y-87756000D01*
X133430725Y-87000331D01*
X133194958Y-87062169D01*
X133018581Y-87563122D01*
X114587168Y-87563122D01*
X114587231Y-87491617D01*
X114384418Y-87000771D01*
X114139976Y-86755902D01*
X114383098Y-86513204D01*
X114586768Y-86022713D01*
X114587116Y-85623686D01*
X115156521Y-85054281D01*
X115284883Y-85364943D01*
X115547673Y-85628192D01*
X115891201Y-85770838D01*
X116263167Y-85771162D01*
X116606943Y-85629117D01*
X116870192Y-85366327D01*
X116949642Y-85174991D01*
X117161201Y-85262838D01*
X117533167Y-85263162D01*
X117876943Y-85121117D01*
X118140192Y-84858327D01*
X118282838Y-84514799D01*
X118283071Y-84247151D01*
X118295167Y-84247162D01*
X118638943Y-84105117D01*
X118902192Y-83842327D01*
X119044838Y-83498799D01*
X119045162Y-83126833D01*
X118983293Y-82977098D01*
X119057167Y-82977162D01*
X119400943Y-82835117D01*
X119664192Y-82572327D01*
X119806838Y-82228799D01*
X119807162Y-81856833D01*
X119665117Y-81513057D01*
X119402327Y-81249808D01*
X119378000Y-81239706D01*
X119378000Y-74607167D01*
X124032838Y-74607167D01*
X124174883Y-74950943D01*
X124437673Y-75214192D01*
X124781201Y-75356838D01*
X124828077Y-75356879D01*
X128858878Y-79387680D01*
X128858838Y-79433167D01*
X129000883Y-79776943D01*
X129263673Y-80040192D01*
X129607201Y-80182838D01*
X129979167Y-80183162D01*
X130322943Y-80041117D01*
X130428954Y-79935290D01*
X130533673Y-80040192D01*
X130877201Y-80182838D01*
X131249167Y-80183162D01*
X131592943Y-80041117D01*
X131698954Y-79935290D01*
X131803673Y-80040192D01*
X132147201Y-80182838D01*
X132519167Y-80183162D01*
X132862943Y-80041117D01*
X133035176Y-79869184D01*
X133047336Y-80093440D01*
X133194958Y-80449831D01*
X133430725Y-80511669D01*
X134186395Y-79756000D01*
X133430725Y-79000331D01*
X133261659Y-79044674D01*
X133169126Y-78820725D01*
X133610331Y-78820725D01*
X134366000Y-79576395D01*
X135121669Y-78820725D01*
X135059831Y-78584958D01*
X134558878Y-78408581D01*
X134028560Y-78437336D01*
X133672169Y-78584958D01*
X133610331Y-78820725D01*
X133169126Y-78820725D01*
X133127117Y-78719057D01*
X132864327Y-78455808D01*
X132520799Y-78313162D01*
X132473923Y-78313121D01*
X129585137Y-75424335D01*
X129712838Y-75116799D01*
X129713162Y-74744833D01*
X129571117Y-74401057D01*
X129308327Y-74137808D01*
X128964799Y-73995162D01*
X128592833Y-73994838D01*
X128249057Y-74136883D01*
X128006801Y-74378717D01*
X127694799Y-74249162D01*
X127322833Y-74248838D01*
X126979057Y-74390883D01*
X126715808Y-74653673D01*
X126586319Y-74965517D01*
X125903122Y-74282320D01*
X125903162Y-74236833D01*
X125761117Y-73893057D01*
X125498327Y-73629808D01*
X125154799Y-73487162D01*
X124782833Y-73486838D01*
X124439057Y-73628883D01*
X124175808Y-73891673D01*
X124033162Y-74235201D01*
X124032838Y-74607167D01*
X119378000Y-74607167D01*
X119378000Y-74208597D01*
X119400943Y-74199117D01*
X119664192Y-73936327D01*
X119806838Y-73592799D01*
X119807060Y-73337167D01*
X131398838Y-73337167D01*
X131540883Y-73680943D01*
X131803673Y-73944192D01*
X132147201Y-74086838D01*
X132519167Y-74087162D01*
X132862943Y-73945117D01*
X132896118Y-73912000D01*
X136089537Y-73912000D01*
X136121673Y-73944192D01*
X136465201Y-74086838D01*
X136837167Y-74087162D01*
X137180943Y-73945117D01*
X137444192Y-73682327D01*
X137586838Y-73338799D01*
X137587162Y-72966833D01*
X137445117Y-72623057D01*
X137182327Y-72359808D01*
X136838799Y-72217162D01*
X136466833Y-72216838D01*
X136123057Y-72358883D01*
X136089882Y-72392000D01*
X132896463Y-72392000D01*
X132864327Y-72359808D01*
X132520799Y-72217162D01*
X132148833Y-72216838D01*
X131805057Y-72358883D01*
X131541808Y-72621673D01*
X131399162Y-72965201D01*
X131398838Y-73337167D01*
X119807060Y-73337167D01*
X119807162Y-73220833D01*
X119665117Y-72877057D01*
X119402327Y-72613808D01*
X119058799Y-72471162D01*
X118686833Y-72470838D01*
X118363629Y-72604383D01*
X118042799Y-72471162D01*
X117670833Y-72470838D01*
X117347629Y-72604383D01*
X117026799Y-72471162D01*
X116654833Y-72470838D01*
X116331629Y-72604383D01*
X116010799Y-72471162D01*
X115638833Y-72470838D01*
X115295057Y-72612883D01*
X115031808Y-72875673D01*
X114889162Y-73219201D01*
X114888838Y-73591167D01*
X115030883Y-73934943D01*
X115077444Y-73981585D01*
X115121852Y-74204839D01*
X115286599Y-74451401D01*
X115572000Y-74736802D01*
X115572000Y-76789001D01*
X115384833Y-76788838D01*
X115041057Y-76930883D01*
X114777808Y-77193673D01*
X114635162Y-77537201D01*
X114634929Y-77804849D01*
X114622833Y-77804838D01*
X114279057Y-77946883D01*
X114015808Y-78209673D01*
X113873162Y-78553201D01*
X113873149Y-78568407D01*
X113518713Y-78421232D01*
X112987617Y-78420769D01*
X112826962Y-78487150D01*
X113060192Y-78254327D01*
X113202838Y-77910799D01*
X113202879Y-77863923D01*
X114693680Y-76373122D01*
X114739167Y-76373162D01*
X115082943Y-76231117D01*
X115346192Y-75968327D01*
X115488838Y-75624799D01*
X115489162Y-75252833D01*
X115347117Y-74909057D01*
X115084327Y-74645808D01*
X114740799Y-74503162D01*
X114368833Y-74502838D01*
X114025057Y-74644883D01*
X113761808Y-74907673D01*
X113619162Y-75251201D01*
X113619121Y-75298077D01*
X112128320Y-76788878D01*
X112082833Y-76788838D01*
X111739057Y-76930883D01*
X111475808Y-77193673D01*
X111333162Y-77537201D01*
X111332838Y-77909167D01*
X111474883Y-78252943D01*
X111730711Y-78509218D01*
X111444878Y-78408581D01*
X110914560Y-78437336D01*
X110558169Y-78584958D01*
X110496331Y-78820725D01*
X111252000Y-79576395D01*
X112007669Y-78820725D01*
X111951032Y-78604787D01*
X112081201Y-78658838D01*
X112453167Y-78659162D01*
X112466752Y-78653549D01*
X112120902Y-78998796D01*
X112072681Y-79114925D01*
X111431605Y-79756000D01*
X112072227Y-80396621D01*
X112119582Y-80511229D01*
X112364024Y-80756098D01*
X112251902Y-80868024D01*
X112009204Y-80624902D01*
X111893075Y-80576681D01*
X111252000Y-79935605D01*
X110611379Y-80576227D01*
X110496771Y-80623582D01*
X110120902Y-80998796D01*
X109917232Y-81489287D01*
X109916769Y-82020383D01*
X100935000Y-82020383D01*
X100935000Y-79563122D01*
X109904581Y-79563122D01*
X109933336Y-80093440D01*
X110080958Y-80449831D01*
X110316725Y-80511669D01*
X111072395Y-79756000D01*
X110316725Y-79000331D01*
X110080958Y-79062169D01*
X109904581Y-79563122D01*
X100935000Y-79563122D01*
X100935000Y-67990000D01*
X100921838Y-67923830D01*
X100921838Y-67856364D01*
X100845718Y-67473681D01*
X100759969Y-67266663D01*
X100743437Y-67226751D01*
X100526664Y-66902328D01*
X100337672Y-66713336D01*
X100013248Y-66496563D01*
X99959664Y-66474368D01*
X99766319Y-66394282D01*
X99383636Y-66318162D01*
X99316170Y-66318162D01*
X99250000Y-66305000D01*
X96317466Y-66305000D01*
X96134590Y-66268624D01*
X96036751Y-66203250D01*
X95971376Y-66105409D01*
X95935000Y-65922534D01*
X95935000Y-63939167D01*
X118698838Y-63939167D01*
X118840883Y-64282943D01*
X119103673Y-64546192D01*
X119447201Y-64688838D01*
X119819167Y-64689162D01*
X120162943Y-64547117D01*
X120196118Y-64514000D01*
X125161198Y-64514000D01*
X125580000Y-64932802D01*
X125580000Y-65109453D01*
X125556485Y-65119169D01*
X125166539Y-65508436D01*
X124955241Y-66017298D01*
X124954760Y-66568285D01*
X125165169Y-67077515D01*
X125554436Y-67467461D01*
X125580000Y-67478076D01*
X125580000Y-67649453D01*
X125556485Y-67659169D01*
X125166539Y-68048436D01*
X124955241Y-68557298D01*
X124954760Y-69108285D01*
X125165169Y-69617515D01*
X125554436Y-70007461D01*
X126063298Y-70218759D01*
X126614285Y-70219240D01*
X127123515Y-70008831D01*
X127513461Y-69619564D01*
X127724759Y-69110702D01*
X127725240Y-68559715D01*
X127715242Y-68535517D01*
X144648088Y-68535517D01*
X144716077Y-68776460D01*
X145235171Y-68961201D01*
X145785448Y-68933230D01*
X146163923Y-68776460D01*
X146231912Y-68535517D01*
X145440000Y-67743605D01*
X144648088Y-68535517D01*
X127715242Y-68535517D01*
X127514831Y-68050485D01*
X127125564Y-67660539D01*
X127100000Y-67649924D01*
X127100000Y-67478547D01*
X127123515Y-67468831D01*
X127233366Y-67359171D01*
X144042799Y-67359171D01*
X144070770Y-67909448D01*
X144227540Y-68287923D01*
X144468483Y-68355912D01*
X145260395Y-67564000D01*
X145619605Y-67564000D01*
X146411517Y-68355912D01*
X146652460Y-68287923D01*
X146837201Y-67768829D01*
X146809230Y-67218552D01*
X146652460Y-66840077D01*
X146411517Y-66772088D01*
X145619605Y-67564000D01*
X145260395Y-67564000D01*
X144468483Y-66772088D01*
X144227540Y-66840077D01*
X144042799Y-67359171D01*
X127233366Y-67359171D01*
X127513461Y-67079564D01*
X127715714Y-66592483D01*
X144648088Y-66592483D01*
X145440000Y-67384395D01*
X146231912Y-66592483D01*
X146163923Y-66351540D01*
X145644829Y-66166799D01*
X145094552Y-66194770D01*
X144716077Y-66351540D01*
X144648088Y-66592483D01*
X127715714Y-66592483D01*
X127724759Y-66570702D01*
X127725240Y-66019715D01*
X127514831Y-65510485D01*
X127125564Y-65120539D01*
X127100000Y-65109924D01*
X127100000Y-64618000D01*
X127042148Y-64327161D01*
X126877401Y-64080599D01*
X126013401Y-63216599D01*
X125766839Y-63051852D01*
X125476000Y-62994000D01*
X120196463Y-62994000D01*
X120164327Y-62961808D01*
X119820799Y-62819162D01*
X119448833Y-62818838D01*
X119105057Y-62960883D01*
X118841808Y-63223673D01*
X118699162Y-63567201D01*
X118698838Y-63939167D01*
X95935000Y-63939167D01*
X95935000Y-61850944D01*
X105836025Y-61850944D01*
X106035615Y-62332818D01*
X106473621Y-62805188D01*
X107059054Y-63073983D01*
X107315000Y-62955367D01*
X107315000Y-61595000D01*
X107569000Y-61595000D01*
X107569000Y-62955367D01*
X107824946Y-63073983D01*
X108410379Y-62805188D01*
X108848385Y-62332818D01*
X109047975Y-61850944D01*
X108928836Y-61595000D01*
X107569000Y-61595000D01*
X107315000Y-61595000D01*
X105955164Y-61595000D01*
X105836025Y-61850944D01*
X95935000Y-61850944D01*
X95935000Y-57912000D01*
X105778560Y-57912000D01*
X105778560Y-59944000D01*
X105822838Y-60179317D01*
X105961910Y-60395441D01*
X106124948Y-60506840D01*
X106035615Y-60603182D01*
X105836025Y-61085056D01*
X105955164Y-61341000D01*
X107315000Y-61341000D01*
X107315000Y-61321000D01*
X107569000Y-61321000D01*
X107569000Y-61341000D01*
X108928836Y-61341000D01*
X109047975Y-61085056D01*
X108848385Y-60603182D01*
X108757903Y-60505602D01*
X108909441Y-60408090D01*
X109054431Y-60195890D01*
X109105440Y-59944000D01*
X109105440Y-57912000D01*
X109061162Y-57676683D01*
X108922090Y-57460559D01*
X108709890Y-57315569D01*
X108458000Y-57264560D01*
X106426000Y-57264560D01*
X106190683Y-57308838D01*
X105974559Y-57447910D01*
X105829569Y-57660110D01*
X105778560Y-57912000D01*
X95935000Y-57912000D01*
X95935000Y-52627544D01*
X96012687Y-52815561D01*
X96919664Y-53724123D01*
X98105294Y-54216439D01*
X99389074Y-54217559D01*
X100575561Y-53727313D01*
X101484123Y-52820336D01*
X101976439Y-51634706D01*
X101976646Y-51396400D01*
X102108960Y-51396400D01*
X102108960Y-53123600D01*
X102153238Y-53358917D01*
X102292310Y-53575041D01*
X102504510Y-53720031D01*
X102756400Y-53771040D01*
X104483600Y-53771040D01*
X104718917Y-53726762D01*
X104935041Y-53587690D01*
X105080031Y-53375490D01*
X105088864Y-53331869D01*
X105100330Y-53349029D01*
X105586511Y-53673885D01*
X106160000Y-53787959D01*
X106733489Y-53673885D01*
X107219670Y-53349029D01*
X107430000Y-53034248D01*
X107640330Y-53349029D01*
X108126511Y-53673885D01*
X108700000Y-53787959D01*
X109273489Y-53673885D01*
X109759670Y-53349029D01*
X109970000Y-53034248D01*
X110180330Y-53349029D01*
X110666511Y-53673885D01*
X111240000Y-53787959D01*
X111813489Y-53673885D01*
X112299670Y-53349029D01*
X112515664Y-53025772D01*
X112573179Y-53148490D01*
X113005053Y-53542688D01*
X113420974Y-53714958D01*
X113653000Y-53593817D01*
X113653000Y-52387000D01*
X113633000Y-52387000D01*
X113633000Y-52133000D01*
X113653000Y-52133000D01*
X113653000Y-52113000D01*
X113907000Y-52113000D01*
X113907000Y-52133000D01*
X113927000Y-52133000D01*
X113927000Y-52387000D01*
X113907000Y-52387000D01*
X113907000Y-53593817D01*
X114139026Y-53714958D01*
X114554947Y-53542688D01*
X114986821Y-53148490D01*
X115044336Y-53025772D01*
X115260330Y-53349029D01*
X115746511Y-53673885D01*
X116320000Y-53787959D01*
X116893489Y-53673885D01*
X117379670Y-53349029D01*
X117590000Y-53034248D01*
X117800330Y-53349029D01*
X118286511Y-53673885D01*
X118860000Y-53787959D01*
X119433489Y-53673885D01*
X119919670Y-53349029D01*
X120130000Y-53034248D01*
X120340330Y-53349029D01*
X120826511Y-53673885D01*
X121400000Y-53787959D01*
X121973489Y-53673885D01*
X122459670Y-53349029D01*
X122670000Y-53034248D01*
X122880330Y-53349029D01*
X123366511Y-53673885D01*
X123940000Y-53787959D01*
X124513489Y-53673885D01*
X124999670Y-53349029D01*
X125210000Y-53034248D01*
X125420330Y-53349029D01*
X125906511Y-53673885D01*
X126480000Y-53787959D01*
X127053489Y-53673885D01*
X127539670Y-53349029D01*
X127750000Y-53034248D01*
X127960330Y-53349029D01*
X128446511Y-53673885D01*
X129020000Y-53787959D01*
X129593489Y-53673885D01*
X130079670Y-53349029D01*
X130290000Y-53034248D01*
X130500330Y-53349029D01*
X130986511Y-53673885D01*
X131560000Y-53787959D01*
X132133489Y-53673885D01*
X132619670Y-53349029D01*
X132835664Y-53025772D01*
X132893179Y-53148490D01*
X133325053Y-53542688D01*
X133740974Y-53714958D01*
X133973000Y-53593817D01*
X133973000Y-52387000D01*
X133953000Y-52387000D01*
X133953000Y-52133000D01*
X133973000Y-52133000D01*
X133973000Y-52113000D01*
X134227000Y-52113000D01*
X134227000Y-52133000D01*
X134247000Y-52133000D01*
X134247000Y-52387000D01*
X134227000Y-52387000D01*
X134227000Y-53593817D01*
X134459026Y-53714958D01*
X134874947Y-53542688D01*
X135306821Y-53148490D01*
X135364336Y-53025772D01*
X135580330Y-53349029D01*
X136066511Y-53673885D01*
X136640000Y-53787959D01*
X137213489Y-53673885D01*
X137699670Y-53349029D01*
X137910000Y-53034248D01*
X138120330Y-53349029D01*
X138606511Y-53673885D01*
X139180000Y-53787959D01*
X139753489Y-53673885D01*
X140239670Y-53349029D01*
X140450000Y-53034248D01*
X140660330Y-53349029D01*
X141146511Y-53673885D01*
X141720000Y-53787959D01*
X142293489Y-53673885D01*
X142779670Y-53349029D01*
X142990000Y-53034248D01*
X143200330Y-53349029D01*
X143686511Y-53673885D01*
X144260000Y-53787959D01*
X144833489Y-53673885D01*
X145319670Y-53349029D01*
X145530000Y-53034248D01*
X145740330Y-53349029D01*
X146226511Y-53673885D01*
X146800000Y-53787959D01*
X147373489Y-53673885D01*
X147859670Y-53349029D01*
X148070000Y-53034248D01*
X148280330Y-53349029D01*
X148766511Y-53673885D01*
X149340000Y-53787959D01*
X149913489Y-53673885D01*
X150399670Y-53349029D01*
X150615664Y-53025772D01*
X150673179Y-53148490D01*
X151105053Y-53542688D01*
X151520974Y-53714958D01*
X151753000Y-53593817D01*
X151753000Y-52387000D01*
X152007000Y-52387000D01*
X152007000Y-53593817D01*
X152239026Y-53714958D01*
X152654947Y-53542688D01*
X153086821Y-53148490D01*
X153334968Y-52619027D01*
X153214469Y-52387000D01*
X152007000Y-52387000D01*
X151753000Y-52387000D01*
X151733000Y-52387000D01*
X151733000Y-52133000D01*
X151753000Y-52133000D01*
X151753000Y-52113000D01*
X152007000Y-52113000D01*
X152007000Y-52133000D01*
X153214469Y-52133000D01*
X153334968Y-51900973D01*
X153086821Y-51371510D01*
X152668839Y-50989992D01*
X152939670Y-50809029D01*
X153264526Y-50322848D01*
X153378600Y-49749359D01*
X153378600Y-49690641D01*
X153264526Y-49117152D01*
X152939670Y-48630971D01*
X152453489Y-48306115D01*
X151880000Y-48192041D01*
X151306511Y-48306115D01*
X150820330Y-48630971D01*
X150610000Y-48945752D01*
X150399670Y-48630971D01*
X149913489Y-48306115D01*
X149340000Y-48192041D01*
X148766511Y-48306115D01*
X148280330Y-48630971D01*
X148070000Y-48945752D01*
X147859670Y-48630971D01*
X147373489Y-48306115D01*
X146800000Y-48192041D01*
X146226511Y-48306115D01*
X145740330Y-48630971D01*
X145524336Y-48954228D01*
X145466821Y-48831510D01*
X145034947Y-48437312D01*
X144619026Y-48265042D01*
X144387000Y-48386183D01*
X144387000Y-49593000D01*
X144407000Y-49593000D01*
X144407000Y-49847000D01*
X144387000Y-49847000D01*
X144387000Y-49867000D01*
X144133000Y-49867000D01*
X144133000Y-49847000D01*
X144113000Y-49847000D01*
X144113000Y-49593000D01*
X144133000Y-49593000D01*
X144133000Y-48386183D01*
X143900974Y-48265042D01*
X143485053Y-48437312D01*
X143053179Y-48831510D01*
X142995664Y-48954228D01*
X142779670Y-48630971D01*
X142293489Y-48306115D01*
X141720000Y-48192041D01*
X141146511Y-48306115D01*
X140660330Y-48630971D01*
X140444336Y-48954228D01*
X140386821Y-48831510D01*
X139954947Y-48437312D01*
X139539026Y-48265042D01*
X139307000Y-48386183D01*
X139307000Y-49593000D01*
X139327000Y-49593000D01*
X139327000Y-49847000D01*
X139307000Y-49847000D01*
X139307000Y-49867000D01*
X139053000Y-49867000D01*
X139053000Y-49847000D01*
X139033000Y-49847000D01*
X139033000Y-49593000D01*
X139053000Y-49593000D01*
X139053000Y-48386183D01*
X138820974Y-48265042D01*
X138405053Y-48437312D01*
X137973179Y-48831510D01*
X137915664Y-48954228D01*
X137699670Y-48630971D01*
X137213489Y-48306115D01*
X136640000Y-48192041D01*
X136066511Y-48306115D01*
X135580330Y-48630971D01*
X135370000Y-48945752D01*
X135159670Y-48630971D01*
X134673489Y-48306115D01*
X134100000Y-48192041D01*
X133526511Y-48306115D01*
X133040330Y-48630971D01*
X132830000Y-48945752D01*
X132619670Y-48630971D01*
X132133489Y-48306115D01*
X131560000Y-48192041D01*
X130986511Y-48306115D01*
X130500330Y-48630971D01*
X130290000Y-48945752D01*
X130079670Y-48630971D01*
X129593489Y-48306115D01*
X129020000Y-48192041D01*
X128446511Y-48306115D01*
X127960330Y-48630971D01*
X127744336Y-48954228D01*
X127686821Y-48831510D01*
X127254947Y-48437312D01*
X126839026Y-48265042D01*
X126607000Y-48386183D01*
X126607000Y-49593000D01*
X126627000Y-49593000D01*
X126627000Y-49847000D01*
X126607000Y-49847000D01*
X126607000Y-49867000D01*
X126353000Y-49867000D01*
X126353000Y-49847000D01*
X126333000Y-49847000D01*
X126333000Y-49593000D01*
X126353000Y-49593000D01*
X126353000Y-48386183D01*
X126120974Y-48265042D01*
X125705053Y-48437312D01*
X125273179Y-48831510D01*
X125215664Y-48954228D01*
X124999670Y-48630971D01*
X124513489Y-48306115D01*
X123940000Y-48192041D01*
X123366511Y-48306115D01*
X122880330Y-48630971D01*
X122670000Y-48945752D01*
X122459670Y-48630971D01*
X121973489Y-48306115D01*
X121400000Y-48192041D01*
X120826511Y-48306115D01*
X120340330Y-48630971D01*
X120124336Y-48954228D01*
X120066821Y-48831510D01*
X119634947Y-48437312D01*
X119219026Y-48265042D01*
X118987000Y-48386183D01*
X118987000Y-49593000D01*
X119007000Y-49593000D01*
X119007000Y-49847000D01*
X118987000Y-49847000D01*
X118987000Y-49867000D01*
X118733000Y-49867000D01*
X118733000Y-49847000D01*
X118713000Y-49847000D01*
X118713000Y-49593000D01*
X118733000Y-49593000D01*
X118733000Y-48386183D01*
X118500974Y-48265042D01*
X118085053Y-48437312D01*
X117653179Y-48831510D01*
X117595664Y-48954228D01*
X117379670Y-48630971D01*
X116893489Y-48306115D01*
X116320000Y-48192041D01*
X115746511Y-48306115D01*
X115260330Y-48630971D01*
X115050000Y-48945752D01*
X114839670Y-48630971D01*
X114353489Y-48306115D01*
X113780000Y-48192041D01*
X113206511Y-48306115D01*
X112720330Y-48630971D01*
X112510000Y-48945752D01*
X112299670Y-48630971D01*
X111813489Y-48306115D01*
X111240000Y-48192041D01*
X110666511Y-48306115D01*
X110180330Y-48630971D01*
X109964336Y-48954228D01*
X109906821Y-48831510D01*
X109474947Y-48437312D01*
X109059026Y-48265042D01*
X108827000Y-48386183D01*
X108827000Y-49593000D01*
X108847000Y-49593000D01*
X108847000Y-49847000D01*
X108827000Y-49847000D01*
X108827000Y-49867000D01*
X108573000Y-49867000D01*
X108573000Y-49847000D01*
X108553000Y-49847000D01*
X108553000Y-49593000D01*
X108573000Y-49593000D01*
X108573000Y-48386183D01*
X108340974Y-48265042D01*
X107925053Y-48437312D01*
X107493179Y-48831510D01*
X107435664Y-48954228D01*
X107219670Y-48630971D01*
X106733489Y-48306115D01*
X106160000Y-48192041D01*
X105586511Y-48306115D01*
X105100330Y-48630971D01*
X104890000Y-48945752D01*
X104679670Y-48630971D01*
X104193489Y-48306115D01*
X103620000Y-48192041D01*
X103046511Y-48306115D01*
X102560330Y-48630971D01*
X102235474Y-49117152D01*
X102121400Y-49690641D01*
X102121400Y-49749359D01*
X102235474Y-50322848D01*
X102546574Y-50788442D01*
X102521083Y-50793238D01*
X102304959Y-50932310D01*
X102159969Y-51144510D01*
X102108960Y-51396400D01*
X101976646Y-51396400D01*
X101977559Y-50350926D01*
X101487313Y-49164439D01*
X100580336Y-48255877D01*
X99394706Y-47763561D01*
X98110926Y-47762441D01*
X96924439Y-48252687D01*
X96238218Y-48937711D01*
X96622537Y-48362537D01*
X97369225Y-47863617D01*
X98317467Y-47675000D01*
X157182533Y-47675000D01*
X158130777Y-47863617D01*
X158130777Y-47863617D01*
G37*
X158130777Y-47863617D02*
X158877463Y-48362537D01*
X159263403Y-48940137D01*
X158580336Y-48255877D01*
X157394706Y-47763561D01*
X156110926Y-47762441D01*
X154924439Y-48252687D01*
X154015877Y-49159664D01*
X153523561Y-50345294D01*
X153522441Y-51629074D01*
X154012687Y-52815561D01*
X154919664Y-53724123D01*
X156105294Y-54216439D01*
X157389074Y-54217559D01*
X158575561Y-53727313D01*
X159484123Y-52820336D01*
X159565000Y-52625562D01*
X159565000Y-95631000D01*
X141935000Y-95631000D01*
X141935000Y-84490000D01*
X141921838Y-84423830D01*
X141921838Y-84356364D01*
X141845718Y-83973681D01*
X141755552Y-83756000D01*
X141743437Y-83726751D01*
X141526664Y-83402328D01*
X141337672Y-83213336D01*
X141013248Y-82996563D01*
X140997403Y-82990000D01*
X140766319Y-82894282D01*
X140383636Y-82818162D01*
X140250000Y-82818162D01*
X139733681Y-82894282D01*
X139589032Y-82954197D01*
X139486751Y-82996563D01*
X139311000Y-83113996D01*
X139311000Y-81026000D01*
X139224603Y-80591654D01*
X138978566Y-80223434D01*
X137708566Y-78953434D01*
X137509953Y-78820725D01*
X137340346Y-78707397D01*
X137172159Y-78673942D01*
X137123204Y-78624902D01*
X136632713Y-78421232D01*
X136101617Y-78420769D01*
X135610771Y-78623582D01*
X135234902Y-78998796D01*
X135186681Y-79114925D01*
X134545605Y-79756000D01*
X135186227Y-80396621D01*
X135233582Y-80511229D01*
X135478024Y-80756098D01*
X135365902Y-80868024D01*
X135123204Y-80624902D01*
X135007075Y-80576681D01*
X134366000Y-79935605D01*
X133725379Y-80576227D01*
X133610771Y-80623582D01*
X133234902Y-80998796D01*
X133031232Y-81489287D01*
X133030769Y-82020383D01*
X133233582Y-82511229D01*
X133478024Y-82756098D01*
X133234902Y-82998796D01*
X133031232Y-83489287D01*
X133030769Y-84020383D01*
X133233582Y-84511229D01*
X133478024Y-84756098D01*
X133234902Y-84998796D01*
X133031232Y-85489287D01*
X133030769Y-86020383D01*
X133233582Y-86511229D01*
X133608796Y-86887098D01*
X133724925Y-86935319D01*
X134366000Y-87576395D01*
X135006621Y-86935773D01*
X135121229Y-86888418D01*
X135366098Y-86643976D01*
X135478024Y-86756098D01*
X135234902Y-86998796D01*
X135186681Y-87114925D01*
X134545605Y-87756000D01*
X135186227Y-88396621D01*
X135233582Y-88511229D01*
X135478024Y-88756098D01*
X135365902Y-88868024D01*
X135123204Y-88624902D01*
X135007075Y-88576681D01*
X134366000Y-87935605D01*
X133725379Y-88576227D01*
X133610771Y-88623582D01*
X133237703Y-88996000D01*
X130450299Y-88996000D01*
X130324327Y-88869808D01*
X129980799Y-88727162D01*
X129608833Y-88726838D01*
X129265057Y-88868883D01*
X129001808Y-89131673D01*
X128859162Y-89475201D01*
X128858838Y-89847167D01*
X128946952Y-90060420D01*
X128757057Y-90138883D01*
X128493808Y-90401673D01*
X128351162Y-90745201D01*
X128350838Y-91117167D01*
X128492883Y-91460943D01*
X128755673Y-91724192D01*
X129099201Y-91866838D01*
X129471167Y-91867162D01*
X129814943Y-91725117D01*
X129848118Y-91692000D01*
X135382000Y-91692000D01*
X135672839Y-91634148D01*
X135919401Y-91469401D01*
X136297861Y-91090941D01*
X136630383Y-91091231D01*
X137121229Y-90888418D01*
X137497098Y-90513204D01*
X137700768Y-90022713D01*
X137701231Y-89491617D01*
X137498418Y-89000771D01*
X137253976Y-88755902D01*
X137497098Y-88513204D01*
X137700768Y-88022713D01*
X137700824Y-87959005D01*
X137922000Y-88003000D01*
X138356345Y-87916603D01*
X138565000Y-87777184D01*
X138565000Y-95631000D01*
X95935000Y-95631000D01*
X95935000Y-87563122D01*
X109904581Y-87563122D01*
X109933336Y-88093440D01*
X110080958Y-88449831D01*
X110316725Y-88511669D01*
X111072395Y-87756000D01*
X110316725Y-87000331D01*
X110080958Y-87062169D01*
X109904581Y-87563122D01*
X95935000Y-87563122D01*
X95935000Y-85057466D01*
X95971376Y-84874591D01*
X96036751Y-84776750D01*
X96134590Y-84711376D01*
X96317466Y-84675000D01*
X99250000Y-84675000D01*
X99316170Y-84661838D01*
X99383636Y-84661838D01*
X99766319Y-84585718D01*
X100013248Y-84483437D01*
X100013249Y-84483436D01*
X100337672Y-84266664D01*
X100526664Y-84077672D01*
X100743437Y-83753249D01*
X100797123Y-83623637D01*
X100845718Y-83506319D01*
X100921838Y-83123636D01*
X100921838Y-83056170D01*
X100935000Y-82990000D01*
X100935000Y-82020383D01*
X109916769Y-82020383D01*
X110119582Y-82511229D01*
X110364024Y-82756098D01*
X110120902Y-82998796D01*
X109917232Y-83489287D01*
X109916769Y-84020383D01*
X110119582Y-84511229D01*
X110364024Y-84756098D01*
X110120902Y-84998796D01*
X109917232Y-85489287D01*
X109916769Y-86020383D01*
X110119582Y-86511229D01*
X110494796Y-86887098D01*
X110610925Y-86935319D01*
X111252000Y-87576395D01*
X111892621Y-86935773D01*
X112007229Y-86888418D01*
X112252098Y-86643976D01*
X112364024Y-86756098D01*
X112120902Y-86998796D01*
X112072681Y-87114925D01*
X111431605Y-87756000D01*
X112072227Y-88396621D01*
X112119582Y-88511229D01*
X112364024Y-88756098D01*
X112251902Y-88868024D01*
X112009204Y-88624902D01*
X111893075Y-88576681D01*
X111252000Y-87935605D01*
X110611379Y-88576227D01*
X110496771Y-88623582D01*
X110120902Y-88998796D01*
X109917232Y-89489287D01*
X109916769Y-90020383D01*
X110119582Y-90511229D01*
X110494796Y-90887098D01*
X110985287Y-91090768D01*
X111516383Y-91091231D01*
X112007229Y-90888418D01*
X112252098Y-90643976D01*
X112494796Y-90887098D01*
X112985287Y-91090768D01*
X113516383Y-91091231D01*
X114007229Y-90888418D01*
X114383098Y-90513204D01*
X114586768Y-90022713D01*
X114587231Y-89491617D01*
X114384418Y-89000771D01*
X114139976Y-88755902D01*
X114383098Y-88513204D01*
X114586768Y-88022713D01*
X114587168Y-87563122D01*
X133018581Y-87563122D01*
X133047336Y-88093440D01*
X133194958Y-88449831D01*
X133430725Y-88511669D01*
X134186395Y-87756000D01*
X133430725Y-87000331D01*
X133194958Y-87062169D01*
X133018581Y-87563122D01*
X114587168Y-87563122D01*
X114587231Y-87491617D01*
X114384418Y-87000771D01*
X114139976Y-86755902D01*
X114383098Y-86513204D01*
X114586768Y-86022713D01*
X114587116Y-85623686D01*
X115156521Y-85054281D01*
X115284883Y-85364943D01*
X115547673Y-85628192D01*
X115891201Y-85770838D01*
X116263167Y-85771162D01*
X116606943Y-85629117D01*
X116870192Y-85366327D01*
X116949642Y-85174991D01*
X117161201Y-85262838D01*
X117533167Y-85263162D01*
X117876943Y-85121117D01*
X118140192Y-84858327D01*
X118282838Y-84514799D01*
X118283071Y-84247151D01*
X118295167Y-84247162D01*
X118638943Y-84105117D01*
X118902192Y-83842327D01*
X119044838Y-83498799D01*
X119045162Y-83126833D01*
X118983293Y-82977098D01*
X119057167Y-82977162D01*
X119400943Y-82835117D01*
X119664192Y-82572327D01*
X119806838Y-82228799D01*
X119807162Y-81856833D01*
X119665117Y-81513057D01*
X119402327Y-81249808D01*
X119378000Y-81239706D01*
X119378000Y-74607167D01*
X124032838Y-74607167D01*
X124174883Y-74950943D01*
X124437673Y-75214192D01*
X124781201Y-75356838D01*
X124828077Y-75356879D01*
X128858878Y-79387680D01*
X128858838Y-79433167D01*
X129000883Y-79776943D01*
X129263673Y-80040192D01*
X129607201Y-80182838D01*
X129979167Y-80183162D01*
X130322943Y-80041117D01*
X130428954Y-79935290D01*
X130533673Y-80040192D01*
X130877201Y-80182838D01*
X131249167Y-80183162D01*
X131592943Y-80041117D01*
X131698954Y-79935290D01*
X131803673Y-80040192D01*
X132147201Y-80182838D01*
X132519167Y-80183162D01*
X132862943Y-80041117D01*
X133035176Y-79869184D01*
X133047336Y-80093440D01*
X133194958Y-80449831D01*
X133430725Y-80511669D01*
X134186395Y-79756000D01*
X133430725Y-79000331D01*
X133261659Y-79044674D01*
X133169126Y-78820725D01*
X133610331Y-78820725D01*
X134366000Y-79576395D01*
X135121669Y-78820725D01*
X135059831Y-78584958D01*
X134558878Y-78408581D01*
X134028560Y-78437336D01*
X133672169Y-78584958D01*
X133610331Y-78820725D01*
X133169126Y-78820725D01*
X133127117Y-78719057D01*
X132864327Y-78455808D01*
X132520799Y-78313162D01*
X132473923Y-78313121D01*
X129585137Y-75424335D01*
X129712838Y-75116799D01*
X129713162Y-74744833D01*
X129571117Y-74401057D01*
X129308327Y-74137808D01*
X128964799Y-73995162D01*
X128592833Y-73994838D01*
X128249057Y-74136883D01*
X128006801Y-74378717D01*
X127694799Y-74249162D01*
X127322833Y-74248838D01*
X126979057Y-74390883D01*
X126715808Y-74653673D01*
X126586319Y-74965517D01*
X125903122Y-74282320D01*
X125903162Y-74236833D01*
X125761117Y-73893057D01*
X125498327Y-73629808D01*
X125154799Y-73487162D01*
X124782833Y-73486838D01*
X124439057Y-73628883D01*
X124175808Y-73891673D01*
X124033162Y-74235201D01*
X124032838Y-74607167D01*
X119378000Y-74607167D01*
X119378000Y-74208597D01*
X119400943Y-74199117D01*
X119664192Y-73936327D01*
X119806838Y-73592799D01*
X119807060Y-73337167D01*
X131398838Y-73337167D01*
X131540883Y-73680943D01*
X131803673Y-73944192D01*
X132147201Y-74086838D01*
X132519167Y-74087162D01*
X132862943Y-73945117D01*
X132896118Y-73912000D01*
X136089537Y-73912000D01*
X136121673Y-73944192D01*
X136465201Y-74086838D01*
X136837167Y-74087162D01*
X137180943Y-73945117D01*
X137444192Y-73682327D01*
X137586838Y-73338799D01*
X137587162Y-72966833D01*
X137445117Y-72623057D01*
X137182327Y-72359808D01*
X136838799Y-72217162D01*
X136466833Y-72216838D01*
X136123057Y-72358883D01*
X136089882Y-72392000D01*
X132896463Y-72392000D01*
X132864327Y-72359808D01*
X132520799Y-72217162D01*
X132148833Y-72216838D01*
X131805057Y-72358883D01*
X131541808Y-72621673D01*
X131399162Y-72965201D01*
X131398838Y-73337167D01*
X119807060Y-73337167D01*
X119807162Y-73220833D01*
X119665117Y-72877057D01*
X119402327Y-72613808D01*
X119058799Y-72471162D01*
X118686833Y-72470838D01*
X118363629Y-72604383D01*
X118042799Y-72471162D01*
X117670833Y-72470838D01*
X117347629Y-72604383D01*
X117026799Y-72471162D01*
X116654833Y-72470838D01*
X116331629Y-72604383D01*
X116010799Y-72471162D01*
X115638833Y-72470838D01*
X115295057Y-72612883D01*
X115031808Y-72875673D01*
X114889162Y-73219201D01*
X114888838Y-73591167D01*
X115030883Y-73934943D01*
X115077444Y-73981585D01*
X115121852Y-74204839D01*
X115286599Y-74451401D01*
X115572000Y-74736802D01*
X115572000Y-76789001D01*
X115384833Y-76788838D01*
X115041057Y-76930883D01*
X114777808Y-77193673D01*
X114635162Y-77537201D01*
X114634929Y-77804849D01*
X114622833Y-77804838D01*
X114279057Y-77946883D01*
X114015808Y-78209673D01*
X113873162Y-78553201D01*
X113873149Y-78568407D01*
X113518713Y-78421232D01*
X112987617Y-78420769D01*
X112826962Y-78487150D01*
X113060192Y-78254327D01*
X113202838Y-77910799D01*
X113202879Y-77863923D01*
X114693680Y-76373122D01*
X114739167Y-76373162D01*
X115082943Y-76231117D01*
X115346192Y-75968327D01*
X115488838Y-75624799D01*
X115489162Y-75252833D01*
X115347117Y-74909057D01*
X115084327Y-74645808D01*
X114740799Y-74503162D01*
X114368833Y-74502838D01*
X114025057Y-74644883D01*
X113761808Y-74907673D01*
X113619162Y-75251201D01*
X113619121Y-75298077D01*
X112128320Y-76788878D01*
X112082833Y-76788838D01*
X111739057Y-76930883D01*
X111475808Y-77193673D01*
X111333162Y-77537201D01*
X111332838Y-77909167D01*
X111474883Y-78252943D01*
X111730711Y-78509218D01*
X111444878Y-78408581D01*
X110914560Y-78437336D01*
X110558169Y-78584958D01*
X110496331Y-78820725D01*
X111252000Y-79576395D01*
X112007669Y-78820725D01*
X111951032Y-78604787D01*
X112081201Y-78658838D01*
X112453167Y-78659162D01*
X112466752Y-78653549D01*
X112120902Y-78998796D01*
X112072681Y-79114925D01*
X111431605Y-79756000D01*
X112072227Y-80396621D01*
X112119582Y-80511229D01*
X112364024Y-80756098D01*
X112251902Y-80868024D01*
X112009204Y-80624902D01*
X111893075Y-80576681D01*
X111252000Y-79935605D01*
X110611379Y-80576227D01*
X110496771Y-80623582D01*
X110120902Y-80998796D01*
X109917232Y-81489287D01*
X109916769Y-82020383D01*
X100935000Y-82020383D01*
X100935000Y-79563122D01*
X109904581Y-79563122D01*
X109933336Y-80093440D01*
X110080958Y-80449831D01*
X110316725Y-80511669D01*
X111072395Y-79756000D01*
X110316725Y-79000331D01*
X110080958Y-79062169D01*
X109904581Y-79563122D01*
X100935000Y-79563122D01*
X100935000Y-67990000D01*
X100921838Y-67923830D01*
X100921838Y-67856364D01*
X100845718Y-67473681D01*
X100759969Y-67266663D01*
X100743437Y-67226751D01*
X100526664Y-66902328D01*
X100337672Y-66713336D01*
X100013248Y-66496563D01*
X99959664Y-66474368D01*
X99766319Y-66394282D01*
X99383636Y-66318162D01*
X99316170Y-66318162D01*
X99250000Y-66305000D01*
X96317466Y-66305000D01*
X96134590Y-66268624D01*
X96036751Y-66203250D01*
X95971376Y-66105409D01*
X95935000Y-65922534D01*
X95935000Y-63939167D01*
X118698838Y-63939167D01*
X118840883Y-64282943D01*
X119103673Y-64546192D01*
X119447201Y-64688838D01*
X119819167Y-64689162D01*
X120162943Y-64547117D01*
X120196118Y-64514000D01*
X125161198Y-64514000D01*
X125580000Y-64932802D01*
X125580000Y-65109453D01*
X125556485Y-65119169D01*
X125166539Y-65508436D01*
X124955241Y-66017298D01*
X124954760Y-66568285D01*
X125165169Y-67077515D01*
X125554436Y-67467461D01*
X125580000Y-67478076D01*
X125580000Y-67649453D01*
X125556485Y-67659169D01*
X125166539Y-68048436D01*
X124955241Y-68557298D01*
X124954760Y-69108285D01*
X125165169Y-69617515D01*
X125554436Y-70007461D01*
X126063298Y-70218759D01*
X126614285Y-70219240D01*
X127123515Y-70008831D01*
X127513461Y-69619564D01*
X127724759Y-69110702D01*
X127725240Y-68559715D01*
X127715242Y-68535517D01*
X144648088Y-68535517D01*
X144716077Y-68776460D01*
X145235171Y-68961201D01*
X145785448Y-68933230D01*
X146163923Y-68776460D01*
X146231912Y-68535517D01*
X145440000Y-67743605D01*
X144648088Y-68535517D01*
X127715242Y-68535517D01*
X127514831Y-68050485D01*
X127125564Y-67660539D01*
X127100000Y-67649924D01*
X127100000Y-67478547D01*
X127123515Y-67468831D01*
X127233366Y-67359171D01*
X144042799Y-67359171D01*
X144070770Y-67909448D01*
X144227540Y-68287923D01*
X144468483Y-68355912D01*
X145260395Y-67564000D01*
X145619605Y-67564000D01*
X146411517Y-68355912D01*
X146652460Y-68287923D01*
X146837201Y-67768829D01*
X146809230Y-67218552D01*
X146652460Y-66840077D01*
X146411517Y-66772088D01*
X145619605Y-67564000D01*
X145260395Y-67564000D01*
X144468483Y-66772088D01*
X144227540Y-66840077D01*
X144042799Y-67359171D01*
X127233366Y-67359171D01*
X127513461Y-67079564D01*
X127715714Y-66592483D01*
X144648088Y-66592483D01*
X145440000Y-67384395D01*
X146231912Y-66592483D01*
X146163923Y-66351540D01*
X145644829Y-66166799D01*
X145094552Y-66194770D01*
X144716077Y-66351540D01*
X144648088Y-66592483D01*
X127715714Y-66592483D01*
X127724759Y-66570702D01*
X127725240Y-66019715D01*
X127514831Y-65510485D01*
X127125564Y-65120539D01*
X127100000Y-65109924D01*
X127100000Y-64618000D01*
X127042148Y-64327161D01*
X126877401Y-64080599D01*
X126013401Y-63216599D01*
X125766839Y-63051852D01*
X125476000Y-62994000D01*
X120196463Y-62994000D01*
X120164327Y-62961808D01*
X119820799Y-62819162D01*
X119448833Y-62818838D01*
X119105057Y-62960883D01*
X118841808Y-63223673D01*
X118699162Y-63567201D01*
X118698838Y-63939167D01*
X95935000Y-63939167D01*
X95935000Y-61850944D01*
X105836025Y-61850944D01*
X106035615Y-62332818D01*
X106473621Y-62805188D01*
X107059054Y-63073983D01*
X107315000Y-62955367D01*
X107315000Y-61595000D01*
X107569000Y-61595000D01*
X107569000Y-62955367D01*
X107824946Y-63073983D01*
X108410379Y-62805188D01*
X108848385Y-62332818D01*
X109047975Y-61850944D01*
X108928836Y-61595000D01*
X107569000Y-61595000D01*
X107315000Y-61595000D01*
X105955164Y-61595000D01*
X105836025Y-61850944D01*
X95935000Y-61850944D01*
X95935000Y-57912000D01*
X105778560Y-57912000D01*
X105778560Y-59944000D01*
X105822838Y-60179317D01*
X105961910Y-60395441D01*
X106124948Y-60506840D01*
X106035615Y-60603182D01*
X105836025Y-61085056D01*
X105955164Y-61341000D01*
X107315000Y-61341000D01*
X107315000Y-61321000D01*
X107569000Y-61321000D01*
X107569000Y-61341000D01*
X108928836Y-61341000D01*
X109047975Y-61085056D01*
X108848385Y-60603182D01*
X108757903Y-60505602D01*
X108909441Y-60408090D01*
X109054431Y-60195890D01*
X109105440Y-59944000D01*
X109105440Y-57912000D01*
X109061162Y-57676683D01*
X108922090Y-57460559D01*
X108709890Y-57315569D01*
X108458000Y-57264560D01*
X106426000Y-57264560D01*
X106190683Y-57308838D01*
X105974559Y-57447910D01*
X105829569Y-57660110D01*
X105778560Y-57912000D01*
X95935000Y-57912000D01*
X95935000Y-52627544D01*
X96012687Y-52815561D01*
X96919664Y-53724123D01*
X98105294Y-54216439D01*
X99389074Y-54217559D01*
X100575561Y-53727313D01*
X101484123Y-52820336D01*
X101976439Y-51634706D01*
X101976646Y-51396400D01*
X102108960Y-51396400D01*
X102108960Y-53123600D01*
X102153238Y-53358917D01*
X102292310Y-53575041D01*
X102504510Y-53720031D01*
X102756400Y-53771040D01*
X104483600Y-53771040D01*
X104718917Y-53726762D01*
X104935041Y-53587690D01*
X105080031Y-53375490D01*
X105088864Y-53331869D01*
X105100330Y-53349029D01*
X105586511Y-53673885D01*
X106160000Y-53787959D01*
X106733489Y-53673885D01*
X107219670Y-53349029D01*
X107430000Y-53034248D01*
X107640330Y-53349029D01*
X108126511Y-53673885D01*
X108700000Y-53787959D01*
X109273489Y-53673885D01*
X109759670Y-53349029D01*
X109970000Y-53034248D01*
X110180330Y-53349029D01*
X110666511Y-53673885D01*
X111240000Y-53787959D01*
X111813489Y-53673885D01*
X112299670Y-53349029D01*
X112515664Y-53025772D01*
X112573179Y-53148490D01*
X113005053Y-53542688D01*
X113420974Y-53714958D01*
X113653000Y-53593817D01*
X113653000Y-52387000D01*
X113633000Y-52387000D01*
X113633000Y-52133000D01*
X113653000Y-52133000D01*
X113653000Y-52113000D01*
X113907000Y-52113000D01*
X113907000Y-52133000D01*
X113927000Y-52133000D01*
X113927000Y-52387000D01*
X113907000Y-52387000D01*
X113907000Y-53593817D01*
X114139026Y-53714958D01*
X114554947Y-53542688D01*
X114986821Y-53148490D01*
X115044336Y-53025772D01*
X115260330Y-53349029D01*
X115746511Y-53673885D01*
X116320000Y-53787959D01*
X116893489Y-53673885D01*
X117379670Y-53349029D01*
X117590000Y-53034248D01*
X117800330Y-53349029D01*
X118286511Y-53673885D01*
X118860000Y-53787959D01*
X119433489Y-53673885D01*
X119919670Y-53349029D01*
X120130000Y-53034248D01*
X120340330Y-53349029D01*
X120826511Y-53673885D01*
X121400000Y-53787959D01*
X121973489Y-53673885D01*
X122459670Y-53349029D01*
X122670000Y-53034248D01*
X122880330Y-53349029D01*
X123366511Y-53673885D01*
X123940000Y-53787959D01*
X124513489Y-53673885D01*
X124999670Y-53349029D01*
X125210000Y-53034248D01*
X125420330Y-53349029D01*
X125906511Y-53673885D01*
X126480000Y-53787959D01*
X127053489Y-53673885D01*
X127539670Y-53349029D01*
X127750000Y-53034248D01*
X127960330Y-53349029D01*
X128446511Y-53673885D01*
X129020000Y-53787959D01*
X129593489Y-53673885D01*
X130079670Y-53349029D01*
X130290000Y-53034248D01*
X130500330Y-53349029D01*
X130986511Y-53673885D01*
X131560000Y-53787959D01*
X132133489Y-53673885D01*
X132619670Y-53349029D01*
X132835664Y-53025772D01*
X132893179Y-53148490D01*
X133325053Y-53542688D01*
X133740974Y-53714958D01*
X133973000Y-53593817D01*
X133973000Y-52387000D01*
X133953000Y-52387000D01*
X133953000Y-52133000D01*
X133973000Y-52133000D01*
X133973000Y-52113000D01*
X134227000Y-52113000D01*
X134227000Y-52133000D01*
X134247000Y-52133000D01*
X134247000Y-52387000D01*
X134227000Y-52387000D01*
X134227000Y-53593817D01*
X134459026Y-53714958D01*
X134874947Y-53542688D01*
X135306821Y-53148490D01*
X135364336Y-53025772D01*
X135580330Y-53349029D01*
X136066511Y-53673885D01*
X136640000Y-53787959D01*
X137213489Y-53673885D01*
X137699670Y-53349029D01*
X137910000Y-53034248D01*
X138120330Y-53349029D01*
X138606511Y-53673885D01*
X139180000Y-53787959D01*
X139753489Y-53673885D01*
X140239670Y-53349029D01*
X140450000Y-53034248D01*
X140660330Y-53349029D01*
X141146511Y-53673885D01*
X141720000Y-53787959D01*
X142293489Y-53673885D01*
X142779670Y-53349029D01*
X142990000Y-53034248D01*
X143200330Y-53349029D01*
X143686511Y-53673885D01*
X144260000Y-53787959D01*
X144833489Y-53673885D01*
X145319670Y-53349029D01*
X145530000Y-53034248D01*
X145740330Y-53349029D01*
X146226511Y-53673885D01*
X146800000Y-53787959D01*
X147373489Y-53673885D01*
X147859670Y-53349029D01*
X148070000Y-53034248D01*
X148280330Y-53349029D01*
X148766511Y-53673885D01*
X149340000Y-53787959D01*
X149913489Y-53673885D01*
X150399670Y-53349029D01*
X150615664Y-53025772D01*
X150673179Y-53148490D01*
X151105053Y-53542688D01*
X151520974Y-53714958D01*
X151753000Y-53593817D01*
X151753000Y-52387000D01*
X152007000Y-52387000D01*
X152007000Y-53593817D01*
X152239026Y-53714958D01*
X152654947Y-53542688D01*
X153086821Y-53148490D01*
X153334968Y-52619027D01*
X153214469Y-52387000D01*
X152007000Y-52387000D01*
X151753000Y-52387000D01*
X151733000Y-52387000D01*
X151733000Y-52133000D01*
X151753000Y-52133000D01*
X151753000Y-52113000D01*
X152007000Y-52113000D01*
X152007000Y-52133000D01*
X153214469Y-52133000D01*
X153334968Y-51900973D01*
X153086821Y-51371510D01*
X152668839Y-50989992D01*
X152939670Y-50809029D01*
X153264526Y-50322848D01*
X153378600Y-49749359D01*
X153378600Y-49690641D01*
X153264526Y-49117152D01*
X152939670Y-48630971D01*
X152453489Y-48306115D01*
X151880000Y-48192041D01*
X151306511Y-48306115D01*
X150820330Y-48630971D01*
X150610000Y-48945752D01*
X150399670Y-48630971D01*
X149913489Y-48306115D01*
X149340000Y-48192041D01*
X148766511Y-48306115D01*
X148280330Y-48630971D01*
X148070000Y-48945752D01*
X147859670Y-48630971D01*
X147373489Y-48306115D01*
X146800000Y-48192041D01*
X146226511Y-48306115D01*
X145740330Y-48630971D01*
X145524336Y-48954228D01*
X145466821Y-48831510D01*
X145034947Y-48437312D01*
X144619026Y-48265042D01*
X144387000Y-48386183D01*
X144387000Y-49593000D01*
X144407000Y-49593000D01*
X144407000Y-49847000D01*
X144387000Y-49847000D01*
X144387000Y-49867000D01*
X144133000Y-49867000D01*
X144133000Y-49847000D01*
X144113000Y-49847000D01*
X144113000Y-49593000D01*
X144133000Y-49593000D01*
X144133000Y-48386183D01*
X143900974Y-48265042D01*
X143485053Y-48437312D01*
X143053179Y-48831510D01*
X142995664Y-48954228D01*
X142779670Y-48630971D01*
X142293489Y-48306115D01*
X141720000Y-48192041D01*
X141146511Y-48306115D01*
X140660330Y-48630971D01*
X140444336Y-48954228D01*
X140386821Y-48831510D01*
X139954947Y-48437312D01*
X139539026Y-48265042D01*
X139307000Y-48386183D01*
X139307000Y-49593000D01*
X139327000Y-49593000D01*
X139327000Y-49847000D01*
X139307000Y-49847000D01*
X139307000Y-49867000D01*
X139053000Y-49867000D01*
X139053000Y-49847000D01*
X139033000Y-49847000D01*
X139033000Y-49593000D01*
X139053000Y-49593000D01*
X139053000Y-48386183D01*
X138820974Y-48265042D01*
X138405053Y-48437312D01*
X137973179Y-48831510D01*
X137915664Y-48954228D01*
X137699670Y-48630971D01*
X137213489Y-48306115D01*
X136640000Y-48192041D01*
X136066511Y-48306115D01*
X135580330Y-48630971D01*
X135370000Y-48945752D01*
X135159670Y-48630971D01*
X134673489Y-48306115D01*
X134100000Y-48192041D01*
X133526511Y-48306115D01*
X133040330Y-48630971D01*
X132830000Y-48945752D01*
X132619670Y-48630971D01*
X132133489Y-48306115D01*
X131560000Y-48192041D01*
X130986511Y-48306115D01*
X130500330Y-48630971D01*
X130290000Y-48945752D01*
X130079670Y-48630971D01*
X129593489Y-48306115D01*
X129020000Y-48192041D01*
X128446511Y-48306115D01*
X127960330Y-48630971D01*
X127744336Y-48954228D01*
X127686821Y-48831510D01*
X127254947Y-48437312D01*
X126839026Y-48265042D01*
X126607000Y-48386183D01*
X126607000Y-49593000D01*
X126627000Y-49593000D01*
X126627000Y-49847000D01*
X126607000Y-49847000D01*
X126607000Y-49867000D01*
X126353000Y-49867000D01*
X126353000Y-49847000D01*
X126333000Y-49847000D01*
X126333000Y-49593000D01*
X126353000Y-49593000D01*
X126353000Y-48386183D01*
X126120974Y-48265042D01*
X125705053Y-48437312D01*
X125273179Y-48831510D01*
X125215664Y-48954228D01*
X124999670Y-48630971D01*
X124513489Y-48306115D01*
X123940000Y-48192041D01*
X123366511Y-48306115D01*
X122880330Y-48630971D01*
X122670000Y-48945752D01*
X122459670Y-48630971D01*
X121973489Y-48306115D01*
X121400000Y-48192041D01*
X120826511Y-48306115D01*
X120340330Y-48630971D01*
X120124336Y-48954228D01*
X120066821Y-48831510D01*
X119634947Y-48437312D01*
X119219026Y-48265042D01*
X118987000Y-48386183D01*
X118987000Y-49593000D01*
X119007000Y-49593000D01*
X119007000Y-49847000D01*
X118987000Y-49847000D01*
X118987000Y-49867000D01*
X118733000Y-49867000D01*
X118733000Y-49847000D01*
X118713000Y-49847000D01*
X118713000Y-49593000D01*
X118733000Y-49593000D01*
X118733000Y-48386183D01*
X118500974Y-48265042D01*
X118085053Y-48437312D01*
X117653179Y-48831510D01*
X117595664Y-48954228D01*
X117379670Y-48630971D01*
X116893489Y-48306115D01*
X116320000Y-48192041D01*
X115746511Y-48306115D01*
X115260330Y-48630971D01*
X115050000Y-48945752D01*
X114839670Y-48630971D01*
X114353489Y-48306115D01*
X113780000Y-48192041D01*
X113206511Y-48306115D01*
X112720330Y-48630971D01*
X112510000Y-48945752D01*
X112299670Y-48630971D01*
X111813489Y-48306115D01*
X111240000Y-48192041D01*
X110666511Y-48306115D01*
X110180330Y-48630971D01*
X109964336Y-48954228D01*
X109906821Y-48831510D01*
X109474947Y-48437312D01*
X109059026Y-48265042D01*
X108827000Y-48386183D01*
X108827000Y-49593000D01*
X108847000Y-49593000D01*
X108847000Y-49847000D01*
X108827000Y-49847000D01*
X108827000Y-49867000D01*
X108573000Y-49867000D01*
X108573000Y-49847000D01*
X108553000Y-49847000D01*
X108553000Y-49593000D01*
X108573000Y-49593000D01*
X108573000Y-48386183D01*
X108340974Y-48265042D01*
X107925053Y-48437312D01*
X107493179Y-48831510D01*
X107435664Y-48954228D01*
X107219670Y-48630971D01*
X106733489Y-48306115D01*
X106160000Y-48192041D01*
X105586511Y-48306115D01*
X105100330Y-48630971D01*
X104890000Y-48945752D01*
X104679670Y-48630971D01*
X104193489Y-48306115D01*
X103620000Y-48192041D01*
X103046511Y-48306115D01*
X102560330Y-48630971D01*
X102235474Y-49117152D01*
X102121400Y-49690641D01*
X102121400Y-49749359D01*
X102235474Y-50322848D01*
X102546574Y-50788442D01*
X102521083Y-50793238D01*
X102304959Y-50932310D01*
X102159969Y-51144510D01*
X102108960Y-51396400D01*
X101976646Y-51396400D01*
X101977559Y-50350926D01*
X101487313Y-49164439D01*
X100580336Y-48255877D01*
X99394706Y-47763561D01*
X98110926Y-47762441D01*
X96924439Y-48252687D01*
X96238218Y-48937711D01*
X96622537Y-48362537D01*
X97369225Y-47863617D01*
X98317467Y-47675000D01*
X157182533Y-47675000D01*
X158130777Y-47863617D01*
M02*
