G04 #@! TF.FileFunction,Legend,Top*
%FSLAX46Y46*%
G04 Gerber Fmt 4.6, Leading zero omitted, Abs format (unit mm)*
G04 Created by KiCad (PCBNEW 4.0.2-1.fc23-product) date Wed 30 Nov 2016 21:48:41 GMT*
%MOMM*%
G01*
G04 APERTURE LIST*
%ADD10C,0.100000*%
%ADD11C,0.200000*%
%ADD12C,0.300000*%
%ADD13C,0.150000*%
G04 APERTURE END LIST*
D10*
D11*
X157988000Y-55118000D02*
X149606000Y-55118000D01*
X149606000Y-75184000D02*
X157988000Y-75184000D01*
X157988000Y-55118000D02*
X157988000Y-75184000D01*
X149606000Y-75184000D02*
X149606000Y-55118000D01*
D12*
X151416857Y-73920857D02*
X151488286Y-73706571D01*
X151559714Y-73635143D01*
X151702571Y-73563714D01*
X151916857Y-73563714D01*
X152059714Y-73635143D01*
X152131143Y-73706571D01*
X152202571Y-73849429D01*
X152202571Y-74420857D01*
X150702571Y-74420857D01*
X150702571Y-73920857D01*
X150774000Y-73778000D01*
X150845429Y-73706571D01*
X150988286Y-73635143D01*
X151131143Y-73635143D01*
X151274000Y-73706571D01*
X151345429Y-73778000D01*
X151416857Y-73920857D01*
X151416857Y-74420857D01*
X150702571Y-72206571D02*
X150702571Y-72920857D01*
X151416857Y-72992286D01*
X151345429Y-72920857D01*
X151274000Y-72778000D01*
X151274000Y-72420857D01*
X151345429Y-72278000D01*
X151416857Y-72206571D01*
X151559714Y-72135143D01*
X151916857Y-72135143D01*
X152059714Y-72206571D01*
X152131143Y-72278000D01*
X152202571Y-72420857D01*
X152202571Y-72778000D01*
X152131143Y-72920857D01*
X152059714Y-72992286D01*
X150845429Y-71563715D02*
X150774000Y-71492286D01*
X150702571Y-71349429D01*
X150702571Y-70992286D01*
X150774000Y-70849429D01*
X150845429Y-70778000D01*
X150988286Y-70706572D01*
X151131143Y-70706572D01*
X151345429Y-70778000D01*
X152202571Y-71635143D01*
X152202571Y-70706572D01*
X150631143Y-68992287D02*
X152559714Y-70278001D01*
X152059714Y-67635143D02*
X152131143Y-67706572D01*
X152202571Y-67920858D01*
X152202571Y-68063715D01*
X152131143Y-68278000D01*
X151988286Y-68420858D01*
X151845429Y-68492286D01*
X151559714Y-68563715D01*
X151345429Y-68563715D01*
X151059714Y-68492286D01*
X150916857Y-68420858D01*
X150774000Y-68278000D01*
X150702571Y-68063715D01*
X150702571Y-67920858D01*
X150774000Y-67706572D01*
X150845429Y-67635143D01*
X152202571Y-66992286D02*
X150702571Y-66992286D01*
X151416857Y-66992286D02*
X151416857Y-66135143D01*
X152202571Y-66135143D02*
X150702571Y-66135143D01*
X151774000Y-65492286D02*
X151774000Y-64778000D01*
X152202571Y-65635143D02*
X150702571Y-65135143D01*
X152202571Y-64635143D01*
X152202571Y-64135143D02*
X150702571Y-64135143D01*
X152202571Y-63278000D01*
X150702571Y-63278000D01*
X152202571Y-62563714D02*
X150702571Y-62563714D01*
X152202571Y-61706571D01*
X150702571Y-61706571D01*
X151416857Y-60992285D02*
X151416857Y-60492285D01*
X152202571Y-60277999D02*
X152202571Y-60992285D01*
X150702571Y-60992285D01*
X150702571Y-60277999D01*
X152202571Y-58920856D02*
X152202571Y-59635142D01*
X150702571Y-59635142D01*
X150631143Y-57349428D02*
X152559714Y-58635142D01*
X150702571Y-56992284D02*
X150702571Y-55992284D01*
X152202571Y-56992284D01*
X152202571Y-55992284D01*
X154602571Y-72706570D02*
X153888286Y-73206570D01*
X154602571Y-73563713D02*
X153102571Y-73563713D01*
X153102571Y-72992285D01*
X153174000Y-72849427D01*
X153245429Y-72777999D01*
X153388286Y-72706570D01*
X153602571Y-72706570D01*
X153745429Y-72777999D01*
X153816857Y-72849427D01*
X153888286Y-72992285D01*
X153888286Y-73563713D01*
X153816857Y-72063713D02*
X153816857Y-71563713D01*
X154602571Y-71349427D02*
X154602571Y-72063713D01*
X153102571Y-72063713D01*
X153102571Y-71349427D01*
X153102571Y-70920856D02*
X154602571Y-70420856D01*
X153102571Y-69920856D01*
X154602571Y-68635142D02*
X154602571Y-69492285D01*
X154602571Y-69063713D02*
X153102571Y-69063713D01*
X153316857Y-69206570D01*
X153459714Y-69349428D01*
X153531143Y-69492285D01*
X153031143Y-66920857D02*
X154959714Y-68206571D01*
X153245429Y-66492285D02*
X153174000Y-66420856D01*
X153102571Y-66277999D01*
X153102571Y-65920856D01*
X153174000Y-65777999D01*
X153245429Y-65706570D01*
X153388286Y-65635142D01*
X153531143Y-65635142D01*
X153745429Y-65706570D01*
X154602571Y-66563713D01*
X154602571Y-65635142D01*
X153102571Y-64706571D02*
X153102571Y-64563714D01*
X153174000Y-64420857D01*
X153245429Y-64349428D01*
X153388286Y-64277999D01*
X153674000Y-64206571D01*
X154031143Y-64206571D01*
X154316857Y-64277999D01*
X154459714Y-64349428D01*
X154531143Y-64420857D01*
X154602571Y-64563714D01*
X154602571Y-64706571D01*
X154531143Y-64849428D01*
X154459714Y-64920857D01*
X154316857Y-64992285D01*
X154031143Y-65063714D01*
X153674000Y-65063714D01*
X153388286Y-64992285D01*
X153245429Y-64920857D01*
X153174000Y-64849428D01*
X153102571Y-64706571D01*
X154602571Y-62778000D02*
X154602571Y-63635143D01*
X154602571Y-63206571D02*
X153102571Y-63206571D01*
X153316857Y-63349428D01*
X153459714Y-63492286D01*
X153531143Y-63635143D01*
X153102571Y-61492286D02*
X153102571Y-61778000D01*
X153174000Y-61920857D01*
X153245429Y-61992286D01*
X153459714Y-62135143D01*
X153745429Y-62206572D01*
X154316857Y-62206572D01*
X154459714Y-62135143D01*
X154531143Y-62063715D01*
X154602571Y-61920857D01*
X154602571Y-61635143D01*
X154531143Y-61492286D01*
X154459714Y-61420857D01*
X154316857Y-61349429D01*
X153959714Y-61349429D01*
X153816857Y-61420857D01*
X153745429Y-61492286D01*
X153674000Y-61635143D01*
X153674000Y-61920857D01*
X153745429Y-62063715D01*
X153816857Y-62135143D01*
X153959714Y-62206572D01*
X153031143Y-59635144D02*
X154959714Y-60920858D01*
X154602571Y-58349429D02*
X154602571Y-59206572D01*
X154602571Y-58778000D02*
X153102571Y-58778000D01*
X153316857Y-58920857D01*
X153459714Y-59063715D01*
X153531143Y-59206572D01*
X154602571Y-56920858D02*
X154602571Y-57778001D01*
X154602571Y-57349429D02*
X153102571Y-57349429D01*
X153316857Y-57492286D01*
X153459714Y-57635144D01*
X153531143Y-57778001D01*
X156216857Y-71385143D02*
X156216857Y-70885143D01*
X157002571Y-70670857D02*
X157002571Y-71385143D01*
X155502571Y-71385143D01*
X155502571Y-70670857D01*
X155431143Y-68956572D02*
X157359714Y-70242286D01*
X155502571Y-68170857D02*
X155502571Y-67885143D01*
X155574000Y-67742285D01*
X155716857Y-67599428D01*
X156002571Y-67528000D01*
X156502571Y-67528000D01*
X156788286Y-67599428D01*
X156931143Y-67742285D01*
X157002571Y-67885143D01*
X157002571Y-68170857D01*
X156931143Y-68313714D01*
X156788286Y-68456571D01*
X156502571Y-68528000D01*
X156002571Y-68528000D01*
X155716857Y-68456571D01*
X155574000Y-68313714D01*
X155502571Y-68170857D01*
X155502571Y-67099428D02*
X157002571Y-66599428D01*
X155502571Y-66099428D01*
X156216857Y-65599428D02*
X156216857Y-65099428D01*
X157002571Y-64885142D02*
X157002571Y-65599428D01*
X155502571Y-65599428D01*
X155502571Y-64885142D01*
X157002571Y-63385142D02*
X156288286Y-63885142D01*
X157002571Y-64242285D02*
X155502571Y-64242285D01*
X155502571Y-63670857D01*
X155574000Y-63527999D01*
X155645429Y-63456571D01*
X155788286Y-63385142D01*
X156002571Y-63385142D01*
X156145429Y-63456571D01*
X156216857Y-63527999D01*
X156288286Y-63670857D01*
X156288286Y-64242285D01*
X155502571Y-62956571D02*
X155502571Y-62099428D01*
X157002571Y-62527999D02*
X155502571Y-62527999D01*
X155502571Y-61313714D02*
X155502571Y-61028000D01*
X155574000Y-60885142D01*
X155716857Y-60742285D01*
X156002571Y-60670857D01*
X156502571Y-60670857D01*
X156788286Y-60742285D01*
X156931143Y-60885142D01*
X157002571Y-61028000D01*
X157002571Y-61313714D01*
X156931143Y-61456571D01*
X156788286Y-61599428D01*
X156502571Y-61670857D01*
X156002571Y-61670857D01*
X155716857Y-61599428D01*
X155574000Y-61456571D01*
X155502571Y-61313714D01*
X157002571Y-60027999D02*
X155502571Y-60027999D01*
X157002571Y-59170856D01*
X155502571Y-59170856D01*
X103513144Y-58176571D02*
X102798858Y-58176571D01*
X102727429Y-58890857D01*
X102798858Y-58819429D01*
X102941715Y-58748000D01*
X103298858Y-58748000D01*
X103441715Y-58819429D01*
X103513144Y-58890857D01*
X103584572Y-59033714D01*
X103584572Y-59390857D01*
X103513144Y-59533714D01*
X103441715Y-59605143D01*
X103298858Y-59676571D01*
X102941715Y-59676571D01*
X102798858Y-59605143D01*
X102727429Y-59533714D01*
X104013143Y-58176571D02*
X104513143Y-59676571D01*
X105013143Y-58176571D01*
X101727428Y-60648000D02*
X101584571Y-60576571D01*
X101370285Y-60576571D01*
X101156000Y-60648000D01*
X101013142Y-60790857D01*
X100941714Y-60933714D01*
X100870285Y-61219429D01*
X100870285Y-61433714D01*
X100941714Y-61719429D01*
X101013142Y-61862286D01*
X101156000Y-62005143D01*
X101370285Y-62076571D01*
X101513142Y-62076571D01*
X101727428Y-62005143D01*
X101798857Y-61933714D01*
X101798857Y-61433714D01*
X101513142Y-61433714D01*
X102441714Y-62076571D02*
X102441714Y-60576571D01*
X103298857Y-62076571D01*
X103298857Y-60576571D01*
X104013143Y-62076571D02*
X104013143Y-60576571D01*
X104370286Y-60576571D01*
X104584571Y-60648000D01*
X104727429Y-60790857D01*
X104798857Y-60933714D01*
X104870286Y-61219429D01*
X104870286Y-61433714D01*
X104798857Y-61719429D01*
X104727429Y-61862286D01*
X104584571Y-62005143D01*
X104370286Y-62076571D01*
X104013143Y-62076571D01*
X132485143Y-100754571D02*
X131985143Y-100040286D01*
X131628000Y-100754571D02*
X131628000Y-99254571D01*
X132199428Y-99254571D01*
X132342286Y-99326000D01*
X132413714Y-99397429D01*
X132485143Y-99540286D01*
X132485143Y-99754571D01*
X132413714Y-99897429D01*
X132342286Y-99968857D01*
X132199428Y-100040286D01*
X131628000Y-100040286D01*
X133770857Y-100754571D02*
X133770857Y-99968857D01*
X133699428Y-99826000D01*
X133556571Y-99754571D01*
X133270857Y-99754571D01*
X133128000Y-99826000D01*
X133770857Y-100683143D02*
X133628000Y-100754571D01*
X133270857Y-100754571D01*
X133128000Y-100683143D01*
X133056571Y-100540286D01*
X133056571Y-100397429D01*
X133128000Y-100254571D01*
X133270857Y-100183143D01*
X133628000Y-100183143D01*
X133770857Y-100111714D01*
X135128000Y-100754571D02*
X135128000Y-99254571D01*
X135128000Y-100683143D02*
X134985143Y-100754571D01*
X134699429Y-100754571D01*
X134556571Y-100683143D01*
X134485143Y-100611714D01*
X134413714Y-100468857D01*
X134413714Y-100040286D01*
X134485143Y-99897429D01*
X134556571Y-99826000D01*
X134699429Y-99754571D01*
X134985143Y-99754571D01*
X135128000Y-99826000D01*
X135842286Y-100754571D02*
X135842286Y-99754571D01*
X135842286Y-99254571D02*
X135770857Y-99326000D01*
X135842286Y-99397429D01*
X135913714Y-99326000D01*
X135842286Y-99254571D01*
X135842286Y-99397429D01*
X136770858Y-100754571D02*
X136628000Y-100683143D01*
X136556572Y-100611714D01*
X136485143Y-100468857D01*
X136485143Y-100040286D01*
X136556572Y-99897429D01*
X136628000Y-99826000D01*
X136770858Y-99754571D01*
X136985143Y-99754571D01*
X137128000Y-99826000D01*
X137199429Y-99897429D01*
X137270858Y-100040286D01*
X137270858Y-100468857D01*
X137199429Y-100611714D01*
X137128000Y-100683143D01*
X136985143Y-100754571D01*
X136770858Y-100754571D01*
X138699429Y-100754571D02*
X137842286Y-100754571D01*
X138270858Y-100754571D02*
X138270858Y-99254571D01*
X138128001Y-99468857D01*
X137985143Y-99611714D01*
X137842286Y-99683143D01*
X109625143Y-100500571D02*
X109125143Y-99786286D01*
X108768000Y-100500571D02*
X108768000Y-99000571D01*
X109339428Y-99000571D01*
X109482286Y-99072000D01*
X109553714Y-99143429D01*
X109625143Y-99286286D01*
X109625143Y-99500571D01*
X109553714Y-99643429D01*
X109482286Y-99714857D01*
X109339428Y-99786286D01*
X108768000Y-99786286D01*
X110910857Y-100500571D02*
X110910857Y-99714857D01*
X110839428Y-99572000D01*
X110696571Y-99500571D01*
X110410857Y-99500571D01*
X110268000Y-99572000D01*
X110910857Y-100429143D02*
X110768000Y-100500571D01*
X110410857Y-100500571D01*
X110268000Y-100429143D01*
X110196571Y-100286286D01*
X110196571Y-100143429D01*
X110268000Y-100000571D01*
X110410857Y-99929143D01*
X110768000Y-99929143D01*
X110910857Y-99857714D01*
X112268000Y-100500571D02*
X112268000Y-99000571D01*
X112268000Y-100429143D02*
X112125143Y-100500571D01*
X111839429Y-100500571D01*
X111696571Y-100429143D01*
X111625143Y-100357714D01*
X111553714Y-100214857D01*
X111553714Y-99786286D01*
X111625143Y-99643429D01*
X111696571Y-99572000D01*
X111839429Y-99500571D01*
X112125143Y-99500571D01*
X112268000Y-99572000D01*
X112982286Y-100500571D02*
X112982286Y-99500571D01*
X112982286Y-99000571D02*
X112910857Y-99072000D01*
X112982286Y-99143429D01*
X113053714Y-99072000D01*
X112982286Y-99000571D01*
X112982286Y-99143429D01*
X113910858Y-100500571D02*
X113768000Y-100429143D01*
X113696572Y-100357714D01*
X113625143Y-100214857D01*
X113625143Y-99786286D01*
X113696572Y-99643429D01*
X113768000Y-99572000D01*
X113910858Y-99500571D01*
X114125143Y-99500571D01*
X114268000Y-99572000D01*
X114339429Y-99643429D01*
X114410858Y-99786286D01*
X114410858Y-100214857D01*
X114339429Y-100357714D01*
X114268000Y-100429143D01*
X114125143Y-100500571D01*
X113910858Y-100500571D01*
X115339429Y-99000571D02*
X115482286Y-99000571D01*
X115625143Y-99072000D01*
X115696572Y-99143429D01*
X115768001Y-99286286D01*
X115839429Y-99572000D01*
X115839429Y-99929143D01*
X115768001Y-100214857D01*
X115696572Y-100357714D01*
X115625143Y-100429143D01*
X115482286Y-100500571D01*
X115339429Y-100500571D01*
X115196572Y-100429143D01*
X115125143Y-100357714D01*
X115053715Y-100214857D01*
X114982286Y-99929143D01*
X114982286Y-99572000D01*
X115053715Y-99286286D01*
X115125143Y-99143429D01*
X115196572Y-99072000D01*
X115339429Y-99000571D01*
D13*
X153150000Y-48450000D02*
X102350000Y-48450000D01*
X104890000Y-53530000D02*
X153150000Y-53530000D01*
X153150000Y-48450000D02*
X153150000Y-53530000D01*
X102350000Y-48450000D02*
X102350000Y-50990000D01*
X102070000Y-52260000D02*
X102070000Y-53810000D01*
X102350000Y-50990000D02*
X104890000Y-50990000D01*
X104890000Y-50990000D02*
X104890000Y-53530000D01*
X102070000Y-53810000D02*
X103620000Y-53810000D01*
X105394000Y-64507000D02*
X103394000Y-64507000D01*
X103394000Y-66557000D02*
X105394000Y-66557000D01*
X104149000Y-79486000D02*
X104149000Y-77486000D01*
X102099000Y-77486000D02*
X102099000Y-79486000D01*
X105156000Y-67818000D02*
X102108000Y-67818000D01*
X102108000Y-67818000D02*
X102108000Y-74930000D01*
X102108000Y-74930000D02*
X105156000Y-74930000D01*
X108204000Y-67818000D02*
X108966000Y-67818000D01*
X108966000Y-67818000D02*
X111252000Y-69342000D01*
X111252000Y-69342000D02*
X111252000Y-73406000D01*
X111252000Y-73406000D02*
X108966000Y-74930000D01*
X108966000Y-74930000D02*
X108204000Y-74930000D01*
X124206000Y-94742000D02*
X119380000Y-94742000D01*
X119380000Y-94742000D02*
X119380000Y-84582000D01*
X119380000Y-84582000D02*
X124206000Y-84582000D01*
X124206000Y-84582000D02*
X124206000Y-94742000D01*
X122428000Y-84582000D02*
X122428000Y-85217000D01*
X122428000Y-85217000D02*
X121158000Y-85217000D01*
X121158000Y-85217000D02*
X121158000Y-84582000D01*
X128762000Y-82287000D02*
X126762000Y-82287000D01*
X126762000Y-84337000D02*
X128762000Y-84337000D01*
X100364000Y-94098000D02*
X100364000Y-90498000D01*
X98264000Y-94098000D02*
X98264000Y-90498000D01*
X99014000Y-92048000D02*
X99614000Y-92048000D01*
X99614000Y-92048000D02*
X99314000Y-92348000D01*
X99314000Y-92348000D02*
X99114000Y-92148000D01*
X99114000Y-92148000D02*
X99364000Y-92148000D01*
X99364000Y-92148000D02*
X99314000Y-92198000D01*
X98814000Y-92448000D02*
X99814000Y-92448000D01*
X99314000Y-91948000D02*
X99314000Y-91448000D01*
X99314000Y-92448000D02*
X98814000Y-91948000D01*
X98814000Y-91948000D02*
X99814000Y-91948000D01*
X99814000Y-91948000D02*
X99314000Y-92448000D01*
X107432000Y-76246000D02*
X127752000Y-76246000D01*
X127752000Y-76246000D02*
X127752000Y-101646000D01*
X107432000Y-101646000D02*
X127752000Y-101646000D01*
X107432000Y-76246000D02*
X107432000Y-101646000D01*
X130546000Y-76246000D02*
X150866000Y-76246000D01*
X150866000Y-76246000D02*
X150866000Y-101646000D01*
X130546000Y-101646000D02*
X150866000Y-101646000D01*
X130546000Y-76246000D02*
X130546000Y-101646000D01*
X100346000Y-85285000D02*
X102346000Y-85285000D01*
X102346000Y-87435000D02*
X100346000Y-87435000D01*
X115554000Y-69333000D02*
X113554000Y-69333000D01*
X113554000Y-71383000D02*
X115554000Y-71383000D01*
X112741000Y-66083000D02*
X112886000Y-66083000D01*
X112741000Y-61933000D02*
X112886000Y-61933000D01*
X117891000Y-61933000D02*
X117746000Y-61933000D01*
X117891000Y-66083000D02*
X117746000Y-66083000D01*
X112741000Y-66083000D02*
X112741000Y-61933000D01*
X117891000Y-66083000D02*
X117891000Y-61933000D01*
X112886000Y-66083000D02*
X112886000Y-67483000D01*
X143890000Y-71564000D02*
X138890000Y-73564000D01*
X138890000Y-61564000D02*
X143890000Y-63564000D01*
X127890000Y-71564000D02*
X132890000Y-73564000D01*
X127890000Y-63564000D02*
X132890000Y-61564000D01*
X141720952Y-67564000D02*
G75*
G03X141720952Y-67564000I-5830952J0D01*
G01*
X143890000Y-63564000D02*
X146890000Y-63564000D01*
X146890000Y-63564000D02*
X146890000Y-71564000D01*
X146890000Y-71564000D02*
X143890000Y-71564000D01*
X124890000Y-71564000D02*
X127890000Y-71564000D01*
X124890000Y-63564000D02*
X127890000Y-63564000D01*
X124890000Y-71564000D02*
X124890000Y-63564000D01*
X108712000Y-60198000D02*
X108712000Y-62738000D01*
X108992000Y-57378000D02*
X108992000Y-58928000D01*
X108712000Y-60198000D02*
X106172000Y-60198000D01*
X105892000Y-58928000D02*
X105892000Y-57378000D01*
X105892000Y-57378000D02*
X108992000Y-57378000D01*
X106172000Y-60198000D02*
X106172000Y-62738000D01*
X106172000Y-62738000D02*
X108712000Y-62738000D01*
X103072381Y-55514333D02*
X103786667Y-55514333D01*
X103929524Y-55561953D01*
X104024762Y-55657191D01*
X104072381Y-55800048D01*
X104072381Y-55895286D01*
X104072381Y-54514333D02*
X104072381Y-55085762D01*
X104072381Y-54800048D02*
X103072381Y-54800048D01*
X103215238Y-54895286D01*
X103310476Y-54990524D01*
X103358095Y-55085762D01*
X107783334Y-65889143D02*
X107735715Y-65936762D01*
X107592858Y-65984381D01*
X107497620Y-65984381D01*
X107354762Y-65936762D01*
X107259524Y-65841524D01*
X107211905Y-65746286D01*
X107164286Y-65555810D01*
X107164286Y-65412952D01*
X107211905Y-65222476D01*
X107259524Y-65127238D01*
X107354762Y-65032000D01*
X107497620Y-64984381D01*
X107592858Y-64984381D01*
X107735715Y-65032000D01*
X107783334Y-65079619D01*
X108735715Y-65984381D02*
X108164286Y-65984381D01*
X108450000Y-65984381D02*
X108450000Y-64984381D01*
X108354762Y-65127238D01*
X108259524Y-65222476D01*
X108164286Y-65270095D01*
X102973143Y-82462666D02*
X103020762Y-82510285D01*
X103068381Y-82653142D01*
X103068381Y-82748380D01*
X103020762Y-82891238D01*
X102925524Y-82986476D01*
X102830286Y-83034095D01*
X102639810Y-83081714D01*
X102496952Y-83081714D01*
X102306476Y-83034095D01*
X102211238Y-82986476D01*
X102116000Y-82891238D01*
X102068381Y-82748380D01*
X102068381Y-82653142D01*
X102116000Y-82510285D01*
X102163619Y-82462666D01*
X102163619Y-82081714D02*
X102116000Y-82034095D01*
X102068381Y-81938857D01*
X102068381Y-81700761D01*
X102116000Y-81605523D01*
X102163619Y-81557904D01*
X102258857Y-81510285D01*
X102354095Y-81510285D01*
X102496952Y-81557904D01*
X103068381Y-82129333D01*
X103068381Y-81510285D01*
X106894381Y-72135905D02*
X107703905Y-72135905D01*
X107799143Y-72088286D01*
X107846762Y-72040667D01*
X107894381Y-71945429D01*
X107894381Y-71754952D01*
X107846762Y-71659714D01*
X107799143Y-71612095D01*
X107703905Y-71564476D01*
X106894381Y-71564476D01*
X107894381Y-70564476D02*
X107894381Y-71135905D01*
X107894381Y-70850191D02*
X106894381Y-70850191D01*
X107037238Y-70945429D01*
X107132476Y-71040667D01*
X107180095Y-71135905D01*
X122642381Y-90423905D02*
X123451905Y-90423905D01*
X123547143Y-90376286D01*
X123594762Y-90328667D01*
X123642381Y-90233429D01*
X123642381Y-90042952D01*
X123594762Y-89947714D01*
X123547143Y-89900095D01*
X123451905Y-89852476D01*
X122642381Y-89852476D01*
X122737619Y-89423905D02*
X122690000Y-89376286D01*
X122642381Y-89281048D01*
X122642381Y-89042952D01*
X122690000Y-88947714D01*
X122737619Y-88900095D01*
X122832857Y-88852476D01*
X122928095Y-88852476D01*
X123070952Y-88900095D01*
X123642381Y-89471524D01*
X123642381Y-88852476D01*
X126325334Y-81637143D02*
X126277715Y-81684762D01*
X126134858Y-81732381D01*
X126039620Y-81732381D01*
X125896762Y-81684762D01*
X125801524Y-81589524D01*
X125753905Y-81494286D01*
X125706286Y-81303810D01*
X125706286Y-81160952D01*
X125753905Y-80970476D01*
X125801524Y-80875238D01*
X125896762Y-80780000D01*
X126039620Y-80732381D01*
X126134858Y-80732381D01*
X126277715Y-80780000D01*
X126325334Y-80827619D01*
X126658667Y-80732381D02*
X127277715Y-80732381D01*
X126944381Y-81113333D01*
X127087239Y-81113333D01*
X127182477Y-81160952D01*
X127230096Y-81208571D01*
X127277715Y-81303810D01*
X127277715Y-81541905D01*
X127230096Y-81637143D01*
X127182477Y-81684762D01*
X127087239Y-81732381D01*
X126801524Y-81732381D01*
X126706286Y-81684762D01*
X126658667Y-81637143D01*
X97766381Y-92686095D02*
X96766381Y-92686095D01*
X96766381Y-92448000D01*
X96814000Y-92305142D01*
X96909238Y-92209904D01*
X97004476Y-92162285D01*
X97194952Y-92114666D01*
X97337810Y-92114666D01*
X97528286Y-92162285D01*
X97623524Y-92209904D01*
X97718762Y-92305142D01*
X97766381Y-92448000D01*
X97766381Y-92686095D01*
X97766381Y-91162285D02*
X97766381Y-91733714D01*
X97766381Y-91448000D02*
X96766381Y-91448000D01*
X96909238Y-91543238D01*
X97004476Y-91638476D01*
X97052095Y-91733714D01*
X125944381Y-78485905D02*
X126753905Y-78485905D01*
X126849143Y-78438286D01*
X126896762Y-78390667D01*
X126944381Y-78295429D01*
X126944381Y-78104952D01*
X126896762Y-78009714D01*
X126849143Y-77962095D01*
X126753905Y-77914476D01*
X125944381Y-77914476D01*
X125944381Y-77533524D02*
X125944381Y-76914476D01*
X126325333Y-77247810D01*
X126325333Y-77104952D01*
X126372952Y-77009714D01*
X126420571Y-76962095D01*
X126515810Y-76914476D01*
X126753905Y-76914476D01*
X126849143Y-76962095D01*
X126896762Y-77009714D01*
X126944381Y-77104952D01*
X126944381Y-77390667D01*
X126896762Y-77485905D01*
X126849143Y-77533524D01*
X149312381Y-78485905D02*
X150121905Y-78485905D01*
X150217143Y-78438286D01*
X150264762Y-78390667D01*
X150312381Y-78295429D01*
X150312381Y-78104952D01*
X150264762Y-78009714D01*
X150217143Y-77962095D01*
X150121905Y-77914476D01*
X149312381Y-77914476D01*
X149645714Y-77009714D02*
X150312381Y-77009714D01*
X149264762Y-77247810D02*
X149979048Y-77485905D01*
X149979048Y-76866857D01*
X101179334Y-89112381D02*
X100846000Y-88636190D01*
X100607905Y-89112381D02*
X100607905Y-88112381D01*
X100988858Y-88112381D01*
X101084096Y-88160000D01*
X101131715Y-88207619D01*
X101179334Y-88302857D01*
X101179334Y-88445714D01*
X101131715Y-88540952D01*
X101084096Y-88588571D01*
X100988858Y-88636190D01*
X100607905Y-88636190D01*
X102131715Y-89112381D02*
X101560286Y-89112381D01*
X101846000Y-89112381D02*
X101846000Y-88112381D01*
X101750762Y-88255238D01*
X101655524Y-88350476D01*
X101560286Y-88398095D01*
X114387334Y-72747143D02*
X114339715Y-72794762D01*
X114196858Y-72842381D01*
X114101620Y-72842381D01*
X113958762Y-72794762D01*
X113863524Y-72699524D01*
X113815905Y-72604286D01*
X113768286Y-72413810D01*
X113768286Y-72270952D01*
X113815905Y-72080476D01*
X113863524Y-71985238D01*
X113958762Y-71890000D01*
X114101620Y-71842381D01*
X114196858Y-71842381D01*
X114339715Y-71890000D01*
X114387334Y-71937619D01*
X115244477Y-72175714D02*
X115244477Y-72842381D01*
X115006381Y-71794762D02*
X114768286Y-72509048D01*
X115387334Y-72509048D01*
X111268381Y-64769905D02*
X112077905Y-64769905D01*
X112173143Y-64722286D01*
X112220762Y-64674667D01*
X112268381Y-64579429D01*
X112268381Y-64388952D01*
X112220762Y-64293714D01*
X112173143Y-64246095D01*
X112077905Y-64198476D01*
X111268381Y-64198476D01*
X111268381Y-63246095D02*
X111268381Y-63722286D01*
X111744571Y-63769905D01*
X111696952Y-63722286D01*
X111649333Y-63627048D01*
X111649333Y-63388952D01*
X111696952Y-63293714D01*
X111744571Y-63246095D01*
X111839810Y-63198476D01*
X112077905Y-63198476D01*
X112173143Y-63246095D01*
X112220762Y-63293714D01*
X112268381Y-63388952D01*
X112268381Y-63627048D01*
X112220762Y-63722286D01*
X112173143Y-63769905D01*
X133985238Y-68016381D02*
X134604286Y-68016381D01*
X134270952Y-68397333D01*
X134413810Y-68397333D01*
X134509048Y-68444952D01*
X134556667Y-68492571D01*
X134604286Y-68587810D01*
X134604286Y-68825905D01*
X134556667Y-68921143D01*
X134509048Y-68968762D01*
X134413810Y-69016381D01*
X134128095Y-69016381D01*
X134032857Y-68968762D01*
X133985238Y-68921143D01*
X135032857Y-68921143D02*
X135080476Y-68968762D01*
X135032857Y-69016381D01*
X134985238Y-68968762D01*
X135032857Y-68921143D01*
X135032857Y-69016381D01*
X135413809Y-68016381D02*
X136032857Y-68016381D01*
X135699523Y-68397333D01*
X135842381Y-68397333D01*
X135937619Y-68444952D01*
X135985238Y-68492571D01*
X136032857Y-68587810D01*
X136032857Y-68825905D01*
X135985238Y-68921143D01*
X135937619Y-68968762D01*
X135842381Y-69016381D01*
X135556666Y-69016381D01*
X135461428Y-68968762D01*
X135413809Y-68921143D01*
X136366190Y-68349714D02*
X136604285Y-69016381D01*
X136842381Y-68349714D01*
X137747143Y-69016381D02*
X137175714Y-69016381D01*
X137461428Y-69016381D02*
X137461428Y-68016381D01*
X137366190Y-68159238D01*
X137270952Y-68254476D01*
X137175714Y-68302095D01*
X106703905Y-54280381D02*
X106703905Y-53280381D01*
X107084858Y-53280381D01*
X107180096Y-53328000D01*
X107227715Y-53375619D01*
X107275334Y-53470857D01*
X107275334Y-53613714D01*
X107227715Y-53708952D01*
X107180096Y-53756571D01*
X107084858Y-53804190D01*
X106703905Y-53804190D01*
X108227715Y-54280381D02*
X107656286Y-54280381D01*
X107942000Y-54280381D02*
X107942000Y-53280381D01*
X107846762Y-53423238D01*
X107751524Y-53518476D01*
X107656286Y-53566095D01*
M02*
