M48
;DRILL file {KiCad 4.0.2-1.fc23-product} date Wed 30 Nov 2016 17:49:50 GMT
;FORMAT={-:-/ absolute / inch / decimal}
FMAT,2
INCH,TZ
T1C0.016
T2C0.031
T3C0.035
T4C0.040
%
G90
G05
M72
T1
X4.01Y-3.67
X4.14Y-3.15
X4.1691Y-2.67
X4.1691Y-2.7609
X4.24Y-2.9
X4.33Y-2.68
X4.42Y-3.06
X4.51Y-2.97
X4.52Y-3.1
X4.55Y-3.06
X4.56Y-2.89
X4.57Y-3.34
X4.6Y-2.89
X4.6Y-3.53
X4.61Y-3.36
X4.61Y-3.68
X4.62Y-2.47
X4.62Y-3.32
X4.63Y-2.73
X4.64Y-2.89
X4.65Y-3.28
X4.68Y-2.89
X4.68Y-3.23
X4.71Y-2.51
X4.92Y-2.93
X4.98Y-3.58
X4.99Y-3.43
X5.02Y-2.96
X5.07Y-2.95
X5.09Y-3.58
X5.11Y-3.12
X5.11Y-3.53
X5.16Y-3.12
X5.18Y-3.37
X5.21Y-2.88
X5.21Y-3.12
X5.38Y-2.88
X5.43Y-3.42
T2
X4.38Y-3.14
X4.38Y-3.2187
X4.38Y-3.2975
X4.38Y-3.3762
X4.38Y-3.455
X4.38Y-3.5337
X4.4587Y-3.14
X4.4587Y-3.2187
X4.4587Y-3.2975
X4.4587Y-3.3762
X4.4587Y-3.455
X4.4587Y-3.5337
X5.29Y-3.14
X5.29Y-3.2187
X5.29Y-3.2975
X5.29Y-3.3762
X5.29Y-3.455
X5.29Y-3.5337
X5.3687Y-3.14
X5.3687Y-3.2187
X5.3687Y-3.2975
X5.3687Y-3.3762
X5.3687Y-3.455
X5.3687Y-3.5337
T3
X4.974Y-2.61
X4.974Y-2.71
X5.726Y-2.66
T4
X4.0795Y-1.9575
X4.0795Y-2.0575
X4.1795Y-1.9575
X4.1795Y-2.0575
X4.23Y-2.32
X4.23Y-2.42
X4.2795Y-1.9575
X4.2795Y-2.0575
X4.3795Y-1.9575
X4.3795Y-2.0575
X4.4795Y-1.9575
X4.4795Y-2.0575
X4.5795Y-1.9575
X4.5795Y-2.0575
X4.6795Y-1.9575
X4.6795Y-2.0575
X4.7795Y-1.9575
X4.7795Y-2.0575
X4.8795Y-1.9575
X4.8795Y-2.0575
X4.9795Y-1.9575
X4.9795Y-2.0575
X5.0795Y-1.9575
X5.0795Y-2.0575
X5.1795Y-1.9575
X5.1795Y-2.0575
X5.2795Y-1.9575
X5.2795Y-2.0575
X5.3795Y-1.9575
X5.3795Y-2.0575
X5.4795Y-1.9575
X5.4795Y-2.0575
X5.5795Y-1.9575
X5.5795Y-2.0575
X5.6795Y-1.9575
X5.6795Y-2.0575
X5.7795Y-1.9575
X5.7795Y-2.0575
X5.8795Y-1.9575
X5.8795Y-2.0575
X5.9795Y-1.9575
X5.9795Y-2.0575
T0
M30
